<?xml version="1.0" encoding="utf-8"?>
<!-- Generator: Adobe Illustrator 24.3.0, SVG Export Plug-In . SVG Version: 6.00 Build 0)  -->
<svg version="1.1" xmlns="http://www.w3.org/2000/svg" xmlns:xlink="http://www.w3.org/1999/xlink" x="0px" y="0px"
	 viewBox="0 0 400 400" style="enable-background:new 0 0 400 400;" xml:space="preserve">
<style type="text/css">
	.st0{font-family:'ArialMT';}
	.st1{font-size:11.0769px;}
	.st2{fill:#FFFFFF;stroke:#C4C4C4;stroke-miterlimit:10;}
	.st3{opacity:0.9;fill:#66C5CC;enable-background:new    ;}
	.st4{fill:#FFFFFF;stroke:#C4C4C4;stroke-width:0.9615;stroke-miterlimit:10;}
	.st5{enable-background:new    ;}
	.st6{fill:#C4C4C4;}
	.st7{font-family:'MyriadPro-Regular';}
	.st8{font-size:12px;}
</style>
<g id="Capa_1">
	<g id="fotografia_satelital_2_">
	</g>
	<g id="mapa">
		<path id="padre_hurtado" d="M102.2,282.4c4.2,4.6,8.4,8.2,12.6,12.8c-1.7-0.4-3.8-0.6-5.4-1.3c-1.3-0.6-5.2,0.8-6.4,1.6
			c-0.7,0.5-0.2,0.6-0.9,0.4c-0.5-0.1-1.3-1.1-1.7-1.4c-0.8,0.9-3,2.9-3.2,4c-0.1,0.9,1.5,1.8,2.4,2.6c-0.7,0.7-1.4,1.4-2.1,2.1
			c2.2,1.4,1.8,1.3,0.8,3.7c-0.6,1.4-1.4,5-2.6,6c-0.9,0.7-3.6,0.7-4.5,0.2c-1.5-1-2.9-3.2-4.1-4.6c1.8-1.2,3.6-2.4,5.3-3.6
			c-0.6-0.6-1.1-1.3-1.7-1.9c0.7-0.6,1.4-1.1,2.2-1.7c-1.6-1.9-4-5.7-6.5-3.2c-1.5,1.5-2.8,3.6-4.1,5.3c-1.3,1.7-1.3,1.2-3.2,0.2
			c2.6-2.7,5.2-5.4,7.8-8.1c0.5-0.5,2-1.6,2-2.3c0-1.1-3-4-3.6-4.8c-0.8-1.1-2.4-2.4-2.1-3.8c0.2-0.9,3.2-3.1,4.3-3
			c1.1,0.1,1.7,3,2.5,3.8c0.8,0.7,0,0.5,1.1,0.3c0.7-0.1,1.5-1.1,2.2-1c0.9,0.1,1.7,1.9,2.6,2.2c0.8,0.3,0.4,0.2,1.3-0.3
			C98.9,285.4,100.6,283.7,102.2,282.4z"/>
		<path id="maipu" d="M114.8,295.1c-3.8-4.2-7.5-7.4-11.3-11.6c-1.1-1.2-2.1-2.4-3.2-3.6c-0.3-0.4-1.7-1.5-1.8-2
			c-0.2-1.5,3.9-2.9,4-4.5c0.1-1.1-2.3-2.3-2.4-3.4c-0.1-0.8,0.6-2.3,0.9-3.1c0.9-3.1,1.8-5.7,1.7-8.9c0-4.9-0.5-9.8-0.5-14.7
			c0-2.7-0.5-8.1,1.9-10.1c1.8-1.5,5.7-1.7,7.9-2.2c3-0.7,6-1.5,8.9-2.2c-2.8-0.7-5.6-1.4-8.5-2c4.6-3.3,9.1-6.7,13.7-10
			c2-1.5,2.7-1.3,2-3.7c-0.8-2.7-1.4-4.9-1.4-7.7c3.8,0.8,7.7,1.6,11.5,2.4c1.6,0.3,4.5,0.4,5.9,1.3c0.3,0.2,0.6,0.1,0.7,0.3
			c0.3,0.4-0.2,2.5-0.2,3.1c1.3-1.1,2.5-2.2,3.8-3.3c0.1,0.9,0,1.2,0.5,1.7c0.7,0.6,2.5,0.8,3.4,1.1c0.6,0.2,2.8,0.5,3.1,1
			c0.2,0.3,0,0.6-0.1,1.2c-0.1,1-0.6,5.5-1.3,6.1c-1.1,0.7-3.8-0.7-4.5,0.4c-0.3,0.5,0,2.3,0,2.9c0,1.2,0,2.5,0,3.7s0.2,2.5,0,3.7
			c0,0.3,0.1,0.7,0,0.9c-0.1,0.3-0.4,0-0.7,0.3c-2.4,3.6-3.6,8.5-5.2,12.6c3.4,0,6.7,0,10.1,0c1,0,1.5-0.1,2.3,0.4
			c0.5,0.3,3.2,2.2,3.3,2.8s-1.8,2.7-2.1,3.2c-1.6,2.5-3.2,4.9-4.8,7.4c-8.2,12.6-16.5,24.2-24.7,36.8c-0.8,1.3-0.9,2.1-2.3,2.1
			c-1.9,0.1-4.3-0.9-6.1-1.3C118,295.7,116.4,295.4,114.8,295.1z"/>
		<path id="cerrillos" d="M155.9,213.1c-0.3,1.6-0.7,3.3-1,4.9c-0.4,1.8,0,2.2-1.7,2.3c-1.3,0.1-2.7-0.4-3.3,0.6s0,4.1,0,5.3
			c0,1.5,0.5,3.9,0,5.3c-0.3,0.7-0.2,0-0.7,0.7c-0.9,1.3-1.4,2.4-1.9,3.9c-1.1,2.9-2.2,5.8-3.3,8.7c2.5,0,5.1,0,7.6,0
			c2.6,0,3.9-0.4,5.8,1.2c0.4,0.4,2.2,1.4,2.3,1.9s-1.4,2.2-1.7,2.6c-1.4,2.2-2.9,4.4-4.3,6.6c4.7,2.1,9.4,4.3,14.1,6.4
			c0.1-2.6-0.2-5.4,0.4-7.9c0.6-2.7,1.9-5.3,2.8-7.9c3-8.4,6-16.8,9.1-25.2c1-2.7,1.5-4.1,1.3-7c-5.1,0.8-10.2,1.6-15.3,2.3
			c-1.7,0.3-2.6,0.7-4-0.1C159.9,216.5,157.9,214.6,155.9,213.1z"/>
		<path id="estacion_central" d="M149.2,197.7c0.1,3.8,0.3,7.6,0.4,11.5c-0.3-0.1-0.7,0-1-0.1c0.1,1-0.1,1.4,0.5,1.9
			c0.7,0.6,2.7,0.9,3.7,1.2c1.6,0.5,2.8,0.8,4.1,1.8c1.1,0.9,2.2,1.7,3.3,2.6c0.7,0.5,1.7,1.7,2.5,2c0.9,0.3,2.2-0.2,3.2-0.4
			c4.9-0.8,9.8-1.7,14.8-2.3c3.2-0.4,6.5,0,9.7,0c-0.1-1.6-0.1-3.3-0.2-4.9c-1.5,0.1-3,0.2-4.5,0.3c1.6-4.7,0.6-10.7,0.7-15.6
			c0-0.4,0.2-1.6,0.1-1.9c-0.1-0.2-0.7,0-0.7-0.2c-0.2-0.4-0.2-0.3-0.4-1c-0.3-1.3,0-3,0-4.3c-2,0.1-4,0.2-6,0.3
			c-0.4,0-2.2-0.2-2.6,0.1c-0.5,0.4,0.1,1.5-0.2,2.2c-0.4,1,0.2,0.4-0.9,0.7c-1,0.3-2.3,0.1-3.3,0.2c-1.9,0.1-3.9,0.2-5.8,0.3
			c0.1,2.1,0.6,4.5,0.4,6.6c-0.1,1.6-0.6,1.5-2.4,2c-1.4,0.3-2.5,0.3-3.9,0C156.7,199.9,152.9,198.7,149.2,197.7z"/>
		<path id="pudahuel" d="M109.7,117.1c3.7,3.6,7.5,7.2,11.1,10.9c1.4,1.4,2.5,3.1,3.9,4.5c1.8,1.7,4,3.1,5.9,4.5
			c-5.3,5.7-10.6,11.3-15.9,17c-0.5,0.5-1.4,1.2-1.6,1.8c-0.6,1.5-0.2,4.2-0.2,5.8c-0.1,1.4-0.6,3.6,0.4,4.3c0.4,0.2,1.2,0,1.5,0.3
			c0.2,0.2,0.1,0.7,0.2,1c0.4,0.7,0.8,1.5,1.2,2.1c1,1.4,2.3,3,3.8,3.8c0.6,0.3,2,0.8,2.6,0.7c1-0.1,0.8-0.5,1.3-1.7
			c1.2,1.7,1.7,2.2,3.8,2.8c1.7,0.5,3.5,0.1,5.2,0.4c1.3,0.2,2.3,1,3.7,1.2c1.8,0.3,3.8,0.2,5.6,0c-0.1,3.7-0.1,7.4-0.2,11.1
			c0,0.5-0.2,1.5,0,2c0.3,0.7,0.3-0.1,1,0.6c0.5,0.5,0.3,0,0.5,0.9c0.2,1,0,2.4,0,3.5c0,2.1,0.2,1.8,2.3,2.3c1.3,0.3,3,0.3,3.4,1.3
			c0.6,1.5,0.1,4.4,0.2,6c0,1.6,0.1,3.3,0.1,4.9c-1.7-0.4-3.7,2.4-4.8,3.4c0-0.7,0.5-2.7,0.1-3.2c-0.3-0.4-2.3-0.5-2.7-0.6
			c-3.6-0.8-7.3-1.6-10.9-2.4c-1.2-0.3-2.8-0.3-4-0.9c-1-0.5-0.7,0-1-1.4c-0.3-1.5-0.1-3.7-1.6-4.6c-1.7-1-4.2,0.3-6,0.2
			c0.3,1.7-0.4,3.1-1.7,4.1c-0.5,0.4-1.1,0.8-1.7,1.1c-1.3,0.7-0.8,0.5-1.8,0c-3-1.6-5.9-1.8-9.2-2.7c-0.1,0.6-0.1,1.8-0.5,2.2
			c-0.6,0.8-2.2,0.4-3.3,0.1c-1.2-0.3-2.3-0.9-3.5-1.2c-0.7-0.1-1.8,0.2-2.2-0.1c-0.6-0.4-0.5-1.5-1.1-1.9c-0.8-0.5-2.5-0.3-3.3,0
			c-1,0.5-1.1,0.7-1,1.8c0.1,1,0.9,1.3,0.8,2.2c-0.1,0.6-0.9,1.4-1.4,1.7c-3.5,2.1-6.6-3.2-6.9-6c-0.3-2.7,2.1-5,4-6.6
			c-1.9-0.5-2.2-2.1-2-3.9c0.2-1.8,1.7-2.7,2.1-4.4c0.3-1.3-0.8-2.2-0.7-3.4c0.1-0.9-0.1-0.3,0.7-1.1c1-1,1.8-1,2-2.2
			c0.2-0.9-0.7-2.1-0.2-2.7c0.6-0.7,2.9-1.1,3.7-1.4c1.2-0.5,3-0.8,4.1-1.5s0.9-0.5,0.8-2.1c0.6,0.2,2.2,1.2,2.8,1.1
			c0.4-0.1,1.9-2.2,2-2.6c0.5-1.5-0.5-4.1-0.7-5.7c0.7,0.1,1.4,0.1,2.1,0.2c0.5-7.1-0.7-14.3-1.4-21.3c-0.3-3.3-0.6-6.6-0.6-9.9
			c0-1.7-0.2-4.6,1.3-5.3c2-0.9,7.8,0.6,8.5-1.3c0.5-1.4-0.2-4.2-0.3-5.7C109.8,120.1,109.7,118.6,109.7,117.1z"/>
		<path id="lo_prado" d="M142.2,181.9c0,2.3-0.6,5.1-0.1,7.3c0.4,1.6,0.2,0.1,1.3,1.2c0.4,0.4,0.2,2.1,0.2,2.8
			c0,2.3-0.7,3.1,1.5,3.6c2.8,0.7,5.6,1.4,8.5,2.1c2,0.5,4.1,1,6.1,1.5c1.9,0.5,3.5,0.7,5.4,0c1.8-0.6,1.9-0.6,1.8-2.3
			c-0.3-4.5,0.1-9.6-0.7-14c-0.2-1.2,0.2-0.7-0.6-1.2c-1.1-0.6-3.4-0.4-4.6-0.5c-1.2-0.1-3.5-0.8-4.6-0.5c-0.9,0.3-0.7,0.8-0.9,2
			c-1.8-0.8-3.7-2.2-5.7-2.3C147.4,181.3,144.7,181.7,142.2,181.9z"/>
		<path id="cerro-navia" d="M112.6,166c0-0.8-0.2-2.5,0.3-2.9c0.6-0.5,3.6,0,4.4,0.1c0.9,0,1.9,0,2.6,0.3c0.2,0.1,0,0.6,0.2,0.7
			c0.2,0.1,0.7,0,0.9,0c0.4,0.1,1.2,0.1,1.6,0c1.3-0.3,2.4-1.5,3.7-1.9c1-0.3,2.1-0.2,3.1-0.2c1.9,0,3.8-0.1,5.7-0.1
			c3.4,0,6.7,0,10.1,0c1.2,0,2.4-0.1,3.6,0c0.7,0.1,1.5,0.6,2.2,0.6c1,0,1.7-1.2,2.8-1.5c1.2-0.4,1.7,0.1,2.6,0.7
			c2.5,1.6,2.6,1.9,2.1,4.4c-1.1,6-2.1,12-3.2,17.9c-1.8-0.8-3.7-2.2-5.6-2.3c-2.4-0.2-5.1,0.2-7.5,0.3c0-1.8,0.1-3.6,0.1-5.3
			c-1.8,0.2-3.6,0.2-5.4,0c-1.5-0.1-2.5-1-3.9-1.2c-1.7-0.3-3.4,0-5-0.4c-2.1-0.6-2.7-1.1-3.9-2.9c-0.7,2-0.8,2.1-3,1.3
			c-1.2-0.4-2.2-1.1-3.2-2.1c-0.9-1-2.1-2.4-2.6-3.7c-0.2-0.4-0.2-1.2-0.4-1.5C114.6,166.1,113,166,112.6,166z"/>
		<path id="santiago" d="M184.6,217.4c2.3,0.1,4.5,0.2,6.8,0.3c0-1.9,0.5-2.3-1.5-2.3c6.7,0.1,13.5,0.3,20.2,0.4
			c2.3,0.1,3.5-0.7,5.6-1.7c1.9-0.9,3.8-1.8,5.7-2.7c0.5-0.3,2.1-0.7,2.3-1.2c0.1-0.4-0.5-1.7-0.6-2.1c-0.5-1.7-0.9-3.4-1.4-5.1
			c-1.1-4.2-2.3-8.4-3.4-12.5c-0.9-3.1-1.4-6.8-2.7-9.8c-0.7-1.5-1.5-1.3-3.2-1.8c-7.4-2.1-14.7-4.2-22.1-6.3
			c0.1,0.6,0.1,1.1,0.2,1.7c-2.7-0.1-6.3-3.3-6.3,1.5c0,2.5,0.4,5.1,0.6,7.7c-2.4,0.1-4.8,0.1-7.2,0.4c-1.2,0.2-0.9-0.2-1.2,0.8
			s0.1,2.7,0.1,3.7c2.9-0.2,5.9-0.3,8.8-0.5c0,1.4-0.3,3,0,4.3c0.1,0.4,0.1,0.7,0.2,1c0.1,0.2,0.8,0.1,0.9,0.2
			c0.2,0.4-0.1,1.5-0.1,1.9c-0.1,4.9,0.9,10.9-0.7,15.6c1.5-0.1,3-0.2,4.5-0.3c0,1.6,0.1,3.3,0.1,4.9c-1.8,0-3.6,0-5.3,0"/>
		<path id="renca" d="M132.9,138.7c-0.7-0.5-1.8-1.7-2.4-1.5c-0.7,0.2-1.8,1.9-2.2,2.4c-2.9,3.1-5.8,6.2-8.7,9.2
			c-1.3,1.4-2.7,2.8-4,4.3c-0.7,0.7-1.9,1.6-2.3,2.5c-1,1.8-0.4,5.2-0.5,7.3c1.6,0,3.2,0,4.9,0.1c0.5,0,1.6-0.2,2.1,0
			c0.4,0.2,0.3,0.7,0.8,0.9c1.5,0.7,3.3-0.6,4.5-1.2c1.5-0.8,2.2-0.8,3.9-0.8c2.9,0,5.7-0.1,8.6-0.1c3.8,0,7.9-0.5,11.6,0
			c1.4,0.2,1.8,0.8,3.1,0.1c0.7-0.4,1.3-0.9,2.1-1.1c1.3-0.4,1.2,0.3,1.2-1.4c2.1,0.1,2.7-0.5,4.6-1.4c1.6-0.7,3-0.5,4.7-0.5
			c2,0,2.5-0.1,4.1,1c1.3,1,2.8,2,4,3.1c2.7,2.5,4.7,4.8,8.1,6.7c2.9,1.6,6.1,2.8,9.2,4.2c0.5-3-4.4-4.9-5.2-7.6
			c-1.1-3.8,0.1-8.1-1.6-11.7c-1.7-3.5-3.7-6.9-5.5-10.4c-1.5-2.8-2.5-5.8-3.7-8.7c-0.6,1-1.7,2.7-1.9,0.4c-1.3,0.7-2.5,1.6-3.9,1.8
			c-2,0.3-1.8,0.3-3.1,2c-0.8,1-2,3.6-3.1,4.2c-1.1,0.6-2.5-0.6-3.4-0.5c-1.3,0.2-2.3,2-3.6,2.3c-0.8,0.2-1.9,0-2.4-0.2
			c-0.1,0-0.1-0.4-0.5-0.5c-0.3-0.1-1.1-0.2-1.4-0.1c-0.8,0.3,0.5,0.7-1.1,0.7c-0.8,0-0.4-0.4-1.2-0.4c-1.1,0-0.8,0.4-1.6,0.6
			c-0.9,0.2-1.6-0.5-1.9,0.7c-0.7-0.8-1.5-2.2-2.3-2.7c-0.7-0.4-1.5,0-2-0.9c-0.5,1.3-3.6,1.1-4.6,0.6s-1.1-1.5-1.5-2.2
			c-0.2-0.5,0.2-0.9-0.2-1.2C134.2,138.5,133.2,138.7,132.9,138.7z"/>
		<path id="quinta_normal" d="M190.4,174.4c-0.3-2.2-0.9-2-2.9-2.9s-4-1.8-6-2.8c-3.2-1.7-5.5-3.8-8-6.3c-1.2-1.2-2.5-2.1-3.8-3.1
			c-1.9-1.4-2.1-1.7-4.4-1.7c-1.6,0-3.4-0.3-4.9,0.3c-2.1,0.8-2.6,1.8-5,1.7c0,1.3,0,1.3,0.9,2.1c0.6,0.5,2.3,1.3,2.6,2.1
			c0.4,1-0.7,3.8-0.9,4.9c-0.8,4.4-1.6,8.9-2.4,13.3c1.5,0.2,3.1,0.3,4.6,0.5c0.9,0.1,5-0.1,5.6,0.6c0.5,0.5,0.2,3.2,0.2,4
			c0.1,1.7,0.1,3.4,0.2,5c2.4-0.1,4.8-0.3,7.1-0.4c0.5,0,2.5,0.2,2.8-0.2c0.3-0.3,0-2.3,0-2.9c0-1.1-0.3-2.5-0.1-3.5
			c0.3-1.2-0.3-0.7,1-1c2.3-0.5,5-0.3,7.4-0.4c-0.2-2.5-0.6-5.1-0.6-7.7C184.2,171.1,187.7,174.2,190.4,174.4z"/>
		<path id="recoleta" d="M215.3,179.7c-1.9-0.6-3.9-1.1-5.8-1.7c-0.9-0.3-4.7-0.7-5.3-1.5c-0.6-0.9,0.4-4.8,0.5-5.9
			c0.2-2,0.3-3.9,0.5-5.9c-0.5,0-2,0.1-2.3-0.1c-0.3-0.3,0-2.5,0-2.9c0-2.2,0-4.4,0.1-6.7c-1.3,0-3-0.1-3.4-1.5
			c-0.3-0.8,0.4-1.8,0.2-2.6c-0.2-0.6-0.6-1-1.1-1.4c1.4-0.4,0.8-2.6,0.8-3.7c0-2.6,0-5.2,0-7.7c0-1.4,0.2-3,0-4.4
			c0,0-0.3-0.3-0.4-0.7c-0.1-0.4-0.1-1.1,0-1.4c0.1-0.4,0.4-0.1,0.5-0.4c0.1-0.5,0.2-1,0.3-1.5c4.2,2.1,9,3.8,12.9,6.3
			c4.2,2.7,8,6.5,11.9,9.6c2.3,1.8,4.5,3.6,6.8,5.5c0.3,0.2,1.1,0.7,1.3,1c0.2,0.4,0.2,2.7-0.1,3.1c-1,1.8-4.2,2.2-5.3,3.9
			c-0.6,0.9-0.7,1.6-1.4,2.4c-1,1.2-2.2,2.8-3.4,3.7c-0.9,0.7-1.5,0.2-2.6,0.6c-0.8,0.3-2.4,1.6-2.7,2.3c-0.5,1.1-0.2,2.7-0.6,3.8
			c-0.5,1.4-1.4,2.8-2.1,4.1C215.8,175.8,215.3,178.8,215.3,179.7z"/>
		<path id="independencia" d="M188.5,150.4c-1.8,0.8-3.6,1.6-5.4,2.4c1.4,3,1.4,6.1,1.7,9.5c0.1,1.1,0,2.6,0.4,3.6
			c0.7,1.5,2.7,3,3.8,4.3c0.3,0.3,1,0.9,1.2,1.3c0.2,0.4-0.2,1,0.1,1.3c0.5,0.6,3.3,0.9,4.1,1.2c3.3,0.9,6.6,1.8,9.8,2.8
			c0.3-3.9,0.7-7.9,1-11.8c-0.5,0-2,0.1-2.3-0.1c-0.3-0.3,0-2.5,0-2.9c0-2.2,0-4.4,0.1-6.7c-1.4,0-3-0.2-3.4-1.7s0.9-3-1.1-3.9
			c-1.3-0.5-4.3-0.3-5.7-0.2C191.3,149.5,189.9,150,188.5,150.4z"/>
		<path id="quilicura" d="M122.8,126.9c-0.3,0.3-1.5,1-1.6,1.4c-0.1,0.3,0.3,0.4,0.5,0.8c0.6,1.1,2,2.5,2.9,3.4
			c1.9,1.8,4.2,3.2,6.2,4.8c0.7,0.5,1.4,1.3,2.2,1.5c0.5,0.2,1.2-0.2,1.5,0.2c0.2,0.3-0.1,1.2,0,1.6c0.7,1.7,5.2,3.1,6,0.9
			c0.5,0.9,1.3,0.5,2,0.9c0.9,0.5,1.7,1.9,2.3,2.7c0.3-1.2,0.9-0.5,1.7-0.7s0.7-0.6,1.8-0.6c0.7,0,0.5,0.4,1.2,0.4
			c1.3,0,0.5-0.5,1.1-0.7c0.7-0.2,1.5,0.4,1.8,0.4c0.5,0.1,1.3,0.5,2.2,0.3c1.5-0.3,2.5-2,3.9-2.3c1-0.2,2.2,1.1,3.4,0.5
			c1.1-0.5,2.4-3.2,3.1-4.2c1.3-1.8,1.1-1.7,3.1-2c1.4-0.2,2.6-1.1,3.9-1.8c0.1,1.5,1.1,1.5,1.6,0.2c0.3-0.9,0.2-0.9-0.2-1.8
			c-1-2.8-2.1-5.6-3.2-8.4c-0.4-1.2-1.6-3.3-0.4-3.9c1-0.4,3.1,0,4.2-0.1c1,0,2.1,0,3.1,0c-1.1-3.2-3.7-7.6-3-11.2
			c0.1-0.3,0-0.7,0.1-0.9c0.1-0.3,0.8-0.4,0.9-0.6c0.1-0.4-0.2-1-0.1-1.5c0.3-0.9,0,0,0.5-0.7c0.3-0.1,0.5-0.2,0.8-0.3
			c0.4-0.1,0.6-0.4,0.5-1c0.4-0.7,0.6-1.6,0.9-2.3c0.4-0.9,0.9-2,1.8-2.6c1.1-0.7,2.9-0.2,2.9-2.1c0-1.2-0.9-0.9-1.2-1.5
			c-0.1-0.3,0-1,0-1.3c-0.1-0.7,0-1.5,0-2.3c0-0.7,0.3-2.6-0.1-2.9c-0.5-0.5-2.1,0.4-2.6,0c-1.7-1-0.8-5.3,0.4-1.3
			c-0.5-2.8,0.5-3.3-3-3.7c-1.6-0.2-1.3-1.1-2.5-2.1c-0.6-0.5-1.2-0.8-2-0.9c-1.2,0-0.9,0.4-1.9,0.6c-2,0.5-2.9,0.1-4.5-1.3
			c-1.4-1.2-3.5-1.7-5.4-1c-0.9,0.3-0.6,0.1-0.9,1.3c-0.2,1.2-0.4,2.4-0.6,3.6c-0.4,1.7-0.7,1.4-2.4,1.9c-4.1,1.1-8.2,2.3-12.3,3.4
			c4,5.4,8.1,10.9,12.1,16.3c-0.5,0-0.9,0-1.4,0c0,0.6,0.1,1.1,0.1,1.7c-2,0-3.9,0-5.9,0c0-0.9,0.1-1.8,0.1-2.7c-1.3,0-2.6,0-3.9,0
			c0,1.7,0.1,3.4,0.1,5.1c-1.1-0.1-3.4-0.9-3.9-1.9c-0.3-0.6,0.4-1.7,0.1-2.4c-0.9-1.7-4.1-0.7-5.4-0.5c0.7,0.5,1.9,1.8,2.9,1.8
			c-1.1,0-2.7-0.4-3.7-0.1c-0.2,0.1-0.4,0.6-0.8,0.7c-0.3,0.1-1.3-0.1-1.4,0c-0.2,0.1-0.3,1-0.4,1.2c-0.7,1.5-1.1,3.2-1.7,4.8
			c-0.7,1.8-0.6,0.8-2.3,1.2c-1.3,0.3-0.9,0.6-0.9,2.2c0,1.1,0.3,2.8-0.1,3.8C126.7,123.2,122.7,124.7,122.8,126.9z"/>
		<path id="conchali" d="M198.8,149.5c1.9-0.4,0.7-9.1,0.7-10.6c0-1.6,0.2-3.4,0-5.1c-0.1-0.4-0.4-0.4-0.4-1.3
			c0-1.2,0.4-0.9,0.6-1.8c0.3-1.5-0.4-1.4-1.7-1.9c-2-0.9-4-1.8-6.1-2.7c-3.4-1.5-6.9-3.6-10.4-4.7c-3.2-1-6.8-0.6-10-0.5
			c-1.7,0-2.2-0.2-1.8,1.8c0.4,1.9,1.4,3.7,2.1,5.5c2.4,6.5,4.8,12.8,8.1,18.9c0.6,1.2,1.2,2.3,1.9,3.5c0.2,0.4,0.8,2,1.2,2.3
			c0.9,0.4,4-1.6,5-2C191.6,149.4,195,149.5,198.8,149.5z"/>
		<path id="san_bernardo" d="M167.8,263.3c2.3,1,4.7,2.1,7,3.1c1.7,0.8,3.4,1.5,5.1,2.3c0.4,0.2,2.2,0.7,2.4,1.1
			c0.2,0.3-0.6,1.8-0.7,2.1c-0.6,1.7-1.1,3.3-1.7,5c-0.9,2.5-1.7,5.1-2.6,7.6c-0.7-0.3-1.4-0.6-2.1-0.9c0,2.4,0.5,5.4,0,7.7
			c-0.6,2.6-2.6,5.4-3.7,7.9c4.9,2.2,9.9,4.3,14.8,6.5c4,1.7,7.7,2.5,12,3.4c-1.9,7.8-3.7,15.6-5.6,23.5c-0.5,2.3-1.1,4.6-1.6,6.9
			c-0.3,1.3-1,2.9-1,4.2c0,1.2,0.5,1.5,1.4,2.6c0.5,0.6,1.3,1.3,1.6,1.9c0.1,0.2-0.4,0.5-0.3,0.8c0.2,0.4,0.7,0.8,1,1.1
			c-0.9,0.3-1.8,0.6-2.8,0.9c1.6,3.1,3.2,6.3,4.8,9.4c0.5,0.9,1.3,2,1.5,3c0.2,0.8,0.1,4.7-0.4,5.3c-0.2,0.3-1.3,0.5-1.7,0.2
			c-0.6-0.3-0.5-0.8-0.6-1.6c-0.1-0.5-0.1-2.6-0.5-3c-0.4-0.5-1.4,0.3-2,0c-0.5-0.3-0.1-1.5-0.5-1.9c-0.2-0.2-0.8,0-1.1,0
			c-2-0.1-4.1,0.4-6.1,0.6c-1.6,0.1-4.7,1.1-6.2,0.6c-1.2-0.4-0.4-3.2-2.3-2.3c0.5,2.6,0.3,4.4,3,5.5c0.4,0.2,0.7,0.2,1.1,0.3
			c0.3,0.1,0.6-0.1,0.9,0c0.2,0.1,0.2,0.4,0.4,0.4c0.4,0.2,0.4,0.3,1.1,0.5c0.6,0.2,1.3,0.1,1.9,0.1c-0.9,1.4-3.5,1.6-4.9,2
			c-1.6,0.5-3.3,1.2-5,1.3c-2,0.1-3-0.4-4.6-1.3c-1.1-0.6-2.1-1.2-3.2-1.8c-0.4-0.2-2.2-0.9-2.3-1.4c-0.4-1,1.7-3.9,2-5
			c0.3-1.2,0-2.1-0.2-3.4c-0.5-2.5-0.9-5.1-1.4-7.6c-0.1-0.7-0.1-1.9-0.5-2.6c-0.5-0.8,0.1-0.2-0.8-0.8c-1.3-0.8-0.9,0.1-1.5-1.3
			c-0.5-1.2-0.9-2.6-1.3-3.9c-0.7-2.3-0.3-2.9,0.6-5.2c-0.6-0.1-1.4-0.4-2-0.3s-0.9,0.6-1.4,0.8c-0.5,0.2-3.5,0.1-3.8-0.4
			c-0.8-1.3,1.4-6,1.8-7.3c0.7-2,2.6-5.2-0.3-6.1c-0.4-0.1-1.1,0.2-1.4-0.1c-0.3-0.3-0.4-1.6-0.5-2.1c-0.4-1.5-0.6-1.8-1.6-2.9
			s-0.4-1.4,0.2-2.9c0.7-1.9,1-1.7-0.4-3.1c-1.2-1.2-1.8-1.3-1.8-2.8c-0.1-1.6,0.6-2.8,1.3-4c0.3-0.6,0.5-0.6,0.6-1.2
			c0.1-0.7-0.5-1.6-0.3-2.2c0.3-1.1,2.1-1.9,2.7-2.9c1.1-1.7,0.7-4.5,0.9-6.5c0.2-2.7-0.1-6.2,0.7-8.8c0.8-2.6,3-5.4,4.4-7.8
			c1.3,0.8,2.5,1.6,3.8,2.4C165.2,273.8,166.5,268.5,167.8,263.3z"/>
		<path id="el_bosque" d="M182.2,269.8c4,1.7,8.1,3.7,12.2,5.2c3.2,1.2,7,1.3,10.4,1.9c-2.4,11.8-4.2,20.4-5.4,26.5
			c-0.3,1.4-0.3,3.9-1.1,5.1c-0.1,0.1,0,0.6-0.1,0.7c-0.3,0.2-2.2-0.5-2.5-0.5c-3.9-0.8-6.8-1.6-10.3-3.2c-4.7-2-9.3-4.1-14-6.1
			c1.2-2.5,3-5.2,3.7-7.9c0.6-2.3,0-5.3,0-7.7c0.7,0.3,1.4,0.6,2.1,0.9C178.9,279.7,180.6,274.8,182.2,269.8z"/>
		<path id="la_cisterna" d="M204.8,276.8c-3.1-0.5-6.6-0.7-9.6-1.6c-3.1-0.9-6.2-2.7-9.2-3.9c-0.6-0.2-3.5-1-3.7-1.6
			c-0.1-0.3,0.6-1.6,0.7-1.9c1.5-3.9,3-7.8,4.5-11.7c1.3-3.4,2.3-7.3,4.1-10.5c0.5-0.8,0.1-0.7,0.8-0.9c1.1-0.2,3.4,1,4.4,1.3
			c4.1,1.2,8.2,2.4,12.3,3.6c0.5,0.1,1.6,0.3,1.7,0.6c0.3,0.5-0.6,2.5-0.7,3.1C208.4,261.2,206.6,269,204.8,276.8z"/>
		<path id="los_espejo" d="M168,255.9c-0.1,1.9-0.7,4.7-0.2,6.5c0.2,0.8-0.1,0.4,0.3,0.9c0.4,0.5,1.6,0.7,2.2,1c4,1.8,8,3.6,12,5.4
			c3-7.9,6.1-15.8,9.1-23.6c0.4-1.1,0.6-1,0.1-1.6c-1-1.1-4-1.8-5.4-2.4c-3.8-1.6-7.5-3.3-11.3-4.9
			C172.6,243.4,170.3,249.6,168,255.9z"/>
		<path id="pedro_aguirre_cerda" d="M191.4,215.4c3.8,0.1,7.6,0.2,11.4,0.3c-3.6,9.7-7.2,19.3-10.9,29c-3.3-1.4-6.6-2.9-9.8-4.3
			c-2-0.9-3.9-1.7-5.9-2.6c-1.2-0.5-1.2-0.3-1.2-1.2c-0.1-1.3,1.4-3.8,1.8-5c0.9-2.4,1.7-4.8,2.6-7.1c1.2-3.2,2.2-5.4,2-8.8
			c1.2,0,2.3,0.1,3.5,0.1c0,0.6-0.1,1.2-0.1,1.8c2.3,0.1,4.5,0.2,6.8,0.3C191.5,217.1,191.6,216,191.4,215.4z"/>
		<path id="san_miguel" d="M191.9,244.6c1.7-4.5,3.4-9,5-13.5c1.2-3.3,2.4-6.5,3.7-9.8c0.5-1.3,1-4.7,2.1-5.6
			c0.9-0.8,4.8-0.1,6.1-0.1c0.5,0,2.9-0.3,3.3,0.1c0.2,0.2,0.1,0.7,0.1,0.9c0.7,2,0.5,4.9,0.8,7c0.4,3.5,0.8,7.1,1.1,10.6
			c0.6,5.4,1.2,10.9,1.8,16.3c-4,0-7.3-1.2-11.1-2.3C200.5,247.1,196.2,245.9,191.9,244.6z"/>
		<path id="san_ramon" d="M215.9,250.7c-1.9,0-3.2-0.1-5-0.6c-2.5,10.9-5.5,24.7-7.8,35.6c5.6,0.7,11.8,1.5,17.4,2.2
			C218.9,276.4,217.4,262.1,215.9,250.7z"/>
		<path id="la_granja" d="M215.9,250.7c1.1,8,2.1,15.9,3.2,23.9c0.3,2.2,0.6,7.5,0.9,9.7c0.1,0.7,0,2.9,0.5,3.5
			c1.4,1.8,8-0.9,9.6-1.3c2-0.5,3.4-0.1,2.9-2.2c-0.5-2.2-1-7.4-1.6-9.6c1,0,2,0,3,0c-0.2-6.9-0.4-13.7-0.6-20.6
			c-0.1-1.8-0.1-3.6-0.2-5.4c0-0.4,0.2-2.4-0.1-2.6c-0.3-0.3-3.2-0.2-3.8,0c-1.4,0.4-2.9,1.7-4.1,2.5c-1.3,0.7-2.4,1.6-3.8,1.9
			C219.8,250.6,217.8,250.5,215.9,250.7z"/>
		<path id="san_joaquin" d="M215.9,250.7c-0.7-6.4-1.4-12.7-2.1-19.1c-0.4-4.1-0.9-8.2-1.3-12.2c-0.1-0.8-0.6-2.4-0.3-3.1
			c0.2-0.6,0.2-0.5,1-0.9c3.4-1.9,7-3.4,10.5-5c1.1,3.2,1.8,6.3,2.5,9.6c0.6,2.8,2.1,5.4,2.9,8.2c0.9,3.3,1.2,6.8,1.7,10.2
			c0.2,1.1,0.1,2.8,0.6,3.8c0.3,0.7,1.3,1,1.7,1.7c0.3,0.6,0.2,1.5,0.2,2.2c-1.2,0-2.8-0.3-3.9,0.1c-1.7,0.5-3.5,2.1-5.1,3
			C221.6,250.6,219.1,250.4,215.9,250.7z"/>
		<path id="la_pintana" d="M233.2,285.7c-4.2,1.1-8.3,2.9-12.6,2.3c-3.5-0.4-7-0.9-10.5-1.3c-1-0.1-5.6-1.4-6.5-0.8
			c-0.6,0.4-2.4,8.5-3.1,12c-0.8,4.1-1.6,8.3-2.6,12.3c-1.4,5.9-2.8,11.9-4.3,17.8c6,0.6,12,1.1,18,1.7c-0.5,3.4-0.9,6.8-1.4,10.2
			c0.6,0,1.1,0,1.7,0c-0.2,1.6-0.4,3.2-0.6,4.7c3,0,3,0,6,0c0.5,0,2.4,0.3,2.7,0c0.6-0.5,0.7-3.7,0.8-4.5c0.4-2.4,0.4-4.5,0.4-7
			c0-1.8,0-3.7,0-5.5c0-0.6-0.2-2,0.1-2.4c0.4-0.4,5.5-0.5,6.2-0.6c1.9-0.4,2.9-0.7,4.8-1.1c0.9-0.2,3.6-0.2,4.3-0.8
			c0.7-0.6,0.2-1.7,0.1-2.8c-0.3-2.8-0.3-5.6-0.4-8.5c-0.1-2.2-1.7-3.3-2-5.4c-0.3-1.9,0.7-3.9,0.6-5.8c-0.1-1.3,0.2-3.4-0.3-4.6
			c-0.1-0.3-1.5-2.9-1.7-4.6c0.6,0,1.2,0,1.8,0C234.2,289.1,233.7,287.4,233.2,285.7z"/>
		<path id="providencia" d="M231,156.8c-1,0.6-2.4,1.2-3.2,2.1c-0.6,0.6-0.6,1.6-1.1,2.3c-0.9,1.4-3.4,4.4-4.9,4.9
			c-0.5,0.2-1.1-0.2-1.6,0c-0.4,0.1-1,0.8-1.4,1.1c-1.2,0.9-1.4,1-1.6,2.5c-0.4,2.6-1.4,4.4-2.5,6.7c0.2,0,0.5,0,0.7,0
			c-0.2,5.6,2,10.9,3.5,16.3c2.9-1,5.9-1.9,8.8-2.9c-0.4,3,6.4-1.4,7.6-1.6c1.7-0.3,4.8-0.9,6.5-0.6c1.3,0.3,2.7,1.6,3.9,2.4
			c2-3.6,4.1-7.2,6.1-10.8c1.1-1.9,1-1.8-0.6-3.5c-1-1-2-1.9-3.1-2.9c-2.9-2.7-5.8-6.4-9.2-8.5c-1.1-0.7-2.7-0.8-3-1.9
			c-0.3-1.1,0.5-4.5,1-5.7C234.8,156.9,232.9,156.8,231,156.8z"/>
		<path id="nunoa" d="M218.9,192.6c2.9-1,5.9-1.9,8.8-2.9c-0.4,3,6.4-1.4,7.6-1.6c1.7-0.3,4.8-0.9,6.5-0.6c1.3,0.3,2.7,1.6,3.9,2.4
			c2.4-4.1,4.7-8.3,7.1-12.4c1.9,1.2,5.2,2.6,6.1,4.6c0.6,1.5,0.7,3.6,1,5.2c0.3,1.6,0.9,3.4,0.9,5c0.1,2.3-0.3,5.2-0.9,7.5
			c-0.4,1.6-1,3.1-1.4,4.7c-0.3,1.1-0.5,3.1-1.3,4c-0.8,1-2.9,1.8-4,2.5c-1,0.7-1.8,1.2-2.9,1.4c-3.6,0.6-7.8-0.1-11.4-0.1
			c-2.5,0-4.9,0.4-7.3,0.7c-1.7,0.2-3.6,0.7-5.3,0.7s-1.4-0.6-2-2.4C222.1,205.3,220.6,198.9,218.9,192.6z"/>
		<path id="la_reina" d="M252.7,177.6c1.7,1.1,3.5,2.1,5.1,3.3c1.2,0.9,1.1,1.5,1.4,3.1c0.7,3.8,1.7,7.4,1.3,11.2
			c-0.2,1.5-0.9,3.6,0.1,4.5c1.1,1,4.1,2.1,5.6,2.5c3.2,0.8,7.4,0.4,10.7,0.4c2,0,4.2-0.6,6.1-0.3c1.8,0.3,3.8,1.4,5.6,2.1
			c0.3-1.2,0.4-3.8,1.1-4.7c0.6-0.7,0.1-0.4,1.2-0.5c3.1-0.3,6.6,0.4,9.7,0.6c6.3,0.4,12.7,0.8,19,1.2c0.1-1.9-0.2-2.9-1.2-4.7
			c-0.8-1.4-2.1-1.9-3.2-3c-0.9-0.9-2.4-2.1-2.6-3.2c-0.4-1.6,0.4-2.5-0.5-3.8c-1.2-1.7-3.3-3-4.9-4.4c-0.9-0.8-2-2.2-3.1-2.8
			c-1.6-0.8-3.8-0.7-5.5-1.3c-1.5-0.5-2.8-1.5-4.3-2c-3-1.1-7.6,0.5-10.8,1c-0.1-1.2-0.3-2.4-0.4-3.6c-4.9,0.6-9.8,1.6-14.7,1.9
			c-5.8,0.3-11.7,0.3-17.5,0.4C251.5,176.3,252.1,177,252.7,177.6z"/>
		<path id="macul" d="M231.6,242.1c-0.8-4.6-1.1-9.5-2.4-14c-0.6-2.3-1.9-4.4-2.5-6.6c-0.7-2.4-1.1-5-1.6-7.5
			c5.2-0.7,10.3-1.6,15.6-1.6c3.1,0,7,0.7,10,0.1c2.2-0.5,4.6-2.7,6.6-3.9c-0.5,3-0.9,5.9-1.4,8.9c-0.4,2.7-0.5,5.8-1.3,8.4
			c-1,3.2-3.2,6.4-4.7,9.5c-1.3,2.7-1.2,4.5-1.2,7.6C243,242.6,237.3,242.3,231.6,242.1z"/>
		<path id="puente_alto" d="M297.8,334.9c-2.4,0.6-3.8-0.9-5.8-1.7c-1.6-0.6-2.5,0.1-3.6,1.3c-1.1,1.2-1.6,2.3-3.2,2.1
			c-2.2-0.3-4.1-1.7-6.4-1.6c-1.9,0.1-3.1,1.9-4.8,2.7c-0.8,0.4-1.6,0.7-2.5,0.6c-1.1-0.1-1.7-0.9-2.7-1.1c-1.5-0.2-2.6,0.8-3.2,2
			c-0.2,0.3-0.4,2.2-0.6,2.4c-0.3,0.3-2.1,0.1-2.5,0.1c-1.6,0.1-3.2,0.5-4.1,2.1c-0.8,1.5-0.8,3.4-1.7,4.9c-1,1.5-1.4,0.5-2.9,0.3
			c-2.9-0.4-3,3.3-5.2,4.3c-0.5,0.2-1.2,0.4-1.7,0.2c-0.6-0.3-0.4-1.2-1.2-1.4c-0.5-0.1-1.1,0.4-1.6,0.5c-0.9,0.4-1.5,0.3-2.4,0.4
			c-1.9,0.2-3.5,1.5-5.4,1.6c-1.3,0-2,0.1-3.3,0.5c-1.3,0.3-2.6,0.4-3.9,0.1c-10.8-2.3-10-1.3-9.4-3.1c0.6-1.7,0.3-4,0.4-5.8
			c0.2-3.2,1.4-6.4,1.4-9.6c0-2.6,0-5.2,0-7.8c0-1.2-0.4-2.8,0.4-3.4c1.4-1,8.1-1,9.8-1.3c1.3-0.2,1.6-0.5,2.8-0.7
			c0.5-0.1,2.2-0.1,2.6-0.5c0.6-0.6-0.2-3.4-0.3-4.4c-0.2-2.3-0.2-4.5-0.2-6.8c-0.1-2.1-1.2-2.4-1.9-4.3c-0.6-1.6-0.3-4.1-0.4-5.8
			c-0.1-1.1,0-4.8,0.6-5.8s4.7-1.7,5.8-2.2c2-0.8,3.1,0.2,5.1,1.2c1.8,0.8,3.2,0.3,5.2,0.1c0.5-0.1,2.1,0,2.4-0.4
			c0.5-0.7-0.7-2.8-0.2-3.6c0.5-0.7,4.1-0.8,4.9-1c4.8-1,9.6-1.9,14.3-2.9c-2.5-3.9-5-7.7-7.5-11.6c3,0.1,6,0.1,9,0.2
			c2.5,0,3.7,2.2,5.5,3.9c0.9-1,1.8-2,2.8-3.1c0.2,0.5,0.6,2.2,1,2.5c0.4,0.2,2.4-0.3,2.9-0.4c1.2-0.3,3.1-1.8,3.8-0.4
			c0.3,0.7,0,2.2,0,2.9c0,1.4,0,2.9,0.1,4.3c0,2,0.1,4,0.1,6c-1.9-0.8-3.8-1.5-5.7-2.3c-0.4,3.3-0.8,6.6-1.2,9.9
			c-0.5-0.1-1.1-0.1-1.6-0.2c-0.1,2.7-1,6.8,0.1,9.2c0.6,1.4,2.2,2.4,2.7,3.8s0,3.7,0.9,4.8c0.5,0.6,4.3,2.6,5,2.5
			c1.1-0.2,1.7-2.8,2.7-3.4c0.6-0.3,2.3-0.1,3-0.2c2.2-0.1,4.3-0.2,6.5-0.4c3.9-0.2,7.8-0.4,11.7-0.7c0,0.8,0.2,2.7-0.2,3.4
			c-0.2,0.3-1.3,0.2-1.6,0.6c-0.7,0.7-0.2,1.1,0,2c0.3,1.8-0.4,4.8-2.5,5.4c-1.7,0.5-3.9-2-3.6,1.2c0.2,1.9,0.2,3.3-1.1,5
			c-1,1.3-3.5,1.7-4.3,0.1c-0.5-0.9,0-3.6-2-2.4c-1,0.6-0.4,0.8-0.3,1.8C299,332.9,298.4,333.7,297.8,334.9z"/>
		<path id="pirque" d="M256.4,358.3c0.2-2.1-2.7,1.2-3.2,1.5c-2.4,1.8-5.9,1.4-8.6,2.8c-1.5,0.8-2,2.2-3.3,3.2c-0.9,0.7-2,0.8-3,1.2
			c-1.6,0.6-2.8,0.8-4.5,0.6c-1.8-0.2-2.6-0.4-4.2,0.6c-1.4,0.8-5.3,1.9-5.4-0.9c0-1.6,3.2-2.9,2.6-4.4c-0.3-0.8-2.7-0.5-3.3-0.6
			c-1.2-0.2-2.3-0.9-3.1-1.8c-2.2-2.6-3.8-5.8-0.7-6.6c2.9-0.7,8.1,1.1,10.8,1.2c1.8,0.1,3.4-0.8,5-0.9c1.5-0.1,2.5-0.5,3.9-1
			s2.6-0.2,3.9-0.6c0.7-0.2,1.6-1.1,2.4-0.9c1.2,0.3,0.6,1.9,2.4,1.5c1.1-0.2,1.7-1.3,2.3-2.2c1-1.5,1.7-2.7,3.7-2.3
			c1.1,0.2,1.4,0.8,2.3,0c1.9-1.6,0.9-5.1,3.2-6.6c1.1-0.7,2.3-0.6,3.5-0.7c0.4,0,1.6,0.1,1.9-0.1c0.2-0.2,0.3-1.9,0.6-2.3
			c2.1-3.9,4.3-0.3,7.4-1.1c1.9-0.5,2.9-2.2,4.5-3c1.6-0.7,3.7,0,5.2,0.5c1.9,0.6,3,1.6,4.6,0.1c0.8-0.8,1.4-1.9,2.4-2.5
			c2.4-1.5,6.7,3.8,8.5,1.2c0.3,0.5,0.5,1.1,0.8,1.6c-3.5,0.1-6.1,0.5-9.4,1.8c-1.8,0.7-1.2,1.2-1.2,3.2s0.5,2.1,2,3.4
			c-2,0.4-4,0.6-5.9,1.2c-1.5,0.5-2.2,1.5-3.4,2.7c0-1,0-1.9,0-2.9c-2.4,0.4-4.7,0.8-7.1,1.2c0.2-0.9,0.4-1.8,0.6-2.7
			c-1.5,0.8-3.7,1.4-5,2.5c-0.7,0.6-0.4,0.1-0.7,0.8c-0.3,0.7,0.1,2.1,0.2,2.9c0.1,1.4,0.6,3.1-0.2,4c-1,1.1-3.7,1.6-5.1,2.3
			c-0.1-1.5-0.3-3.1-0.4-4.6c-1.4,0.7-2.9,1.3-4.3,2c0.7,1,1.4,1.9,2.2,2.9C259.5,357,258,357.6,256.4,358.3z M310.8,325.1
			c-1,0.6-1.4,0.7-2.6,0.4c-0.4-0.1-0.9-0.7-1.4-0.6c-1.4,0.4-0.2,2.7-0.2,3.6c1.3-1.3,2.1-0.8,3.7-1.2
			C311.9,326.9,311.7,326.1,310.8,325.1z M312.1,322.1c-0.1,0.1-0.2,0.2-0.1,0.3c0.7,0,2-1.8,2.6-2.2c1.3-1,2.7-1.8,3.8-2.9
			c1.3-1.2,2.1-2.6,4-2.4c1.4,0.2,2.3,1.5,3.6,0.2c0.7-0.6,0.9-3.9,1.5-4s1.4,2.5,3,2.2c0.8-0.1,1.1-0.8,1.8-1.1
			c0.9-0.4,2-0.2,2.9-0.1c1.7,0.1,4.2,0.4,4.2-2.1c-0.1-2-2.7-2.2-4.3-1.8c-1.9,0.5-2.5,2.4-4.6,1.6c-1.5-0.6-3-2.5-4.8-2
			c-2.3,0.7-0.4,3.6-1.9,4.5c-0.8,0.5-0.9-0.2-1.6-0.5c-1.4-0.6-1.5-0.4-2.6,0.6c-1.5,1.4-2.7,2.7-4.3,3.8c-0.3,0.1-0.6,0.2-0.9,0.4
			c-0.3,0.3-0.4,0.6-0.4,1.1c-0.3,0.2-0.9-0.1-1.2,0.2c-0.7,0.7-0.6,0.4-0.8,1.3C311.9,320.4,312.4,321.2,312.1,322.1z M350.2,301.4
			c-1-1.3-2.2-3.4-4-3.4c-2.4,0.1-1.9,2.7-3.3,4c-2,2-3-1-4.9-0.5c-1.2,0.3-0.2,1.3-0.3,2.6c1-0.8,1.9,0.2,2.8,0.5
			c1.1,0.5,2.1,0.6,3.3,0c1.1-0.6,1.8-2.3,3-2.7c0.2-0.1,1,0.2,1.3,0.1C348.8,302,349.3,301.4,350.2,301.4z"/>
		<path id="san_jose_de_maipo" d="M337.4,304.2c0.1-1.3-1-2.3,0.3-2.6c1.9-0.5,3,2.5,5,0.5c1.3-1.4,0.9-3.9,3.2-4
			c2.2-0.1,2.6,2.3,4,3.4c1,0.8,2.2,0.7,3.3,0.5c1.2-0.3,2.3-0.4,3.6-0.6c2.1-0.4,3.7-1.5,6-1.1c1.2,0.2,2.2,1.7,2.7,0.3
			c0.4-1.2-0.7-2.1-1.7-2.3c-1.1-0.2-1.9,0.4-2.9,0.7c-1.3,0.3-1.3,0-2.5-0.5c-0.7-0.2-1.9-0.4-2.4-0.7c-0.5-0.3-0.7-0.8-1.1-1.1
			c-1.6-1-0.5,0-2.2,0.5c-1.5,0.5-2.6-1.1-3.1-2.3c-0.3-0.9-0.1-3-1.3-3.3c-0.7-0.2-1.5,1.7-1.6,2.3c-0.1,0.4,0.4,1.7,0.2,1.9
			c-0.7,0.9-2.3,0.3-3.2,0.4c-1.7,0.2-3.5,1.1-4-1.4c-1.3,0.5-1.3,2.4-2.7,2.9c1.5,1.7-0.1,2.7-0.9,4.1c-0.7,1.1-0.3,2.7-1.9,2.2
			c-0.8-0.2-0.3-1.4-1.2-0.5c-0.5,0.5-0.1,1.4-0.5,2c-1.1,1.4-2.9,0.6-2.9-1c-0.4,0.6-1,1.9-1.8,2.1c-1.2,0.3-1-1.1-1.8-1.4
			c-1.1-0.4-2.1,1.2-3.3,1c-0.9-0.2-1.2-1.1-2.4-0.6c-0.9,0.4-1.4,1.4-1.7,2.3c-0.2,0.6-1.3,5.9-0.7,6.1c0.9,0.3,1.9-2.7,3.4-2.4
			c1.2,0.2,1.5,1.8,2.5,0.4c0.9-1.3-0.4-3.3,1.5-4c1.4-0.5,2.8,0.7,3.9,1.3c1.4,0.8,2.2,1.3,3.6,0.3c1.7-1.1,2.2-1.4,4.3-1.2
			C341,308.6,335.9,305.7,337.4,304.2z"/>
		<path id="la_florida" d="M232.2,242.1c1.4,1.4,1.2,1.6,1.3,3.5c0,0.5,0,1,0.1,1.6c0.1,3.2,0.2,6.4,0.3,9.6c0.2,6,0.4,12,0.6,18
			c-1,0-2,0-3,0c1,4.4,2.1,11.8,3.4,16.2c-0.6,0-1.2,0-1.8,0c0.3,1.8,0.5,0.5,0.8,2.3s0,2.4,1.9,1.9s4-2.1,5.9-2.2
			c1.4-0.1,2.9,1.1,4.3,1.6c1.5,0.6,2.6,0.3,4.2,0.1c0.5-0.1,2.4,0,2.8-0.4c0.5-0.4,0.3-1,0.2-1.9c-0.1-1.8-0.4-1.8,1.2-2.1
			c2-0.4,3.9-0.8,5.9-1.2c4-0.8,8-1.6,12.1-2.4c-2.5-3.9-5-7.7-7.5-11.6c3,0.1,6,0.1,9,0.2c2.5,0,3.7,2.2,5.5,3.9
			c1.4-1.5,2.8-3,4.4-4.4c1.1-0.9,1.2-0.7,1.1-1.9c-0.1-1-0.8-3-1.3-3.9c-0.8-1.3-3.9-2.3-4.2-3.6c-0.5-1.9,3.8-1.1,4.8-1.1
			c-0.1-2-0.2-4-0.3-6c4.4,0.4,8.9,0.8,13.3,1.2c0-1.2,0.4-5-0.3-5.6c-0.5-0.4-2.7-0.2-3.4-0.3c-0.7-0.1-3.3,0.2-3.9-0.3
			c-0.8-0.7-0.3-4.9-0.3-6.1c-0.1-2.6,0.4-3,2.1-5c-0.9,0-2.4-0.3-3.2,0c-0.8,0.3-1.2,1.4-1.9,1.9c-1.1,0.8-2.6,1-3.9,0.9
			c-4.3,0-8.6,0-12.9-0.3c-7.5-0.4-15-1.3-22.6-1.8C241.7,242.7,237.2,242.4,232.2,242.1z"/>
		<path id="penalolen" d="M319.7,201.1c-6.3-0.4-12.7-0.8-19-1.2c-3.1-0.2-6.6-0.9-9.7-0.6c-1.1,0.1-0.6-0.2-1.2,0.5
			c-0.7,1-0.9,3.5-1.1,4.7c-2.1-0.8-4.2-2-6.4-2c-2.3-0.1-4.7,0.3-7,0.2c-2.8-0.1-6.1,0.3-8.8-0.3c-2.1-0.5-4.3-1.9-6.3-2.8
			c-1,3.2-2.2,6.4-2.9,9.6c-0.9,4.7-1.5,9.6-2.2,14.3c-0.5,3.5-2.5,6.5-4,9.7c-0.7,1.4-1.9,3-2.2,4.5c-0.2,0.8-0.4,4.7,0.1,5.1
			c0.7,0.6,3.9,0.3,4.7,0.4c2.8,0.2,5.5,0.4,8.3,0.7c3.1,0.2,6.1,0.6,9.2,0.7c4,0.1,8.8,0.9,12.8,0.2c2.2-0.4,2.6-2,4.3-2.8
			c0.8-0.4,2.4,0.5,3.2,0c0.6-0.4,0.6-1.7,1.3-2c0.3-0.2,0.9,0.3,1.3,0.2c0.3-0.1,0.6-0.6,0.8-0.8c1.1-0.9,2.1-1.9,3.1-2.9
			c2-1.8,2.3-2.2,4.9-2.3c1,0,2.6,0.2,3.5-0.1s1.4-1.6,2.3-1.9c0.9-0.4,2.2,0.1,3.1-0.2c1-0.4,0.7-0.7,0.7-2c3.2,1.5,6,3.4,9.5,3.6
			c3.3,0.2,4.6-4.2,7.4-5.2c1.4-0.5,3.4,0.5,4.9,0c1.7-0.6,1.9-2.2,4-2.2c1.7,0,3.2,1.1,4.7,1.7c1.8,0.8,2.5,0.9,4.5,0.8
			c2-0.1,3.4-1.2,5.2-2.2c1.7-0.9,2.9-0.7,4.9-0.6c-0.1-1.5,0-3.5-1-4.8c-1.1-1.4-3.2-0.6-4.9-1.1c-0.7-0.2-1-0.7-1.7-1.1
			c-0.8-0.5-1.6-0.2-2.5-0.5c-1.5-0.5-2.3-2.6-3.4-3.8c-0.7-0.8-0.6-0.5-1.4-0.9c-0.3-0.1-0.6-0.1-0.9-0.2c-0.4-0.2-0.7-0.8-1.1-1
			c-1.3-0.6-3.8-0.2-5.3-0.3c-2-0.1-2.5-0.1-4.1-1.2c-0.5-0.4-1.7-0.9-2-1.4c-0.4-0.6,0-1.6-0.3-2.2
			C327.2,203.7,323,202.6,319.7,201.1z"/>
		<path id="las_condes" d="M355.9,220.6c-1.5-0.2-3.6,0-5-0.6c-0.6-0.3-1-1-1.6-1.3c-0.7-0.3-1.7,0-2.4-0.3
			c-1.3-0.6-2.2-2.7-3.2-3.8c-0.5-0.6-0.5-0.6-1.1-0.9c-0.3-0.1-0.7,0.1-1-0.1c-0.4-0.2-0.7-0.7-1-1c-2.3-1.4-6,0.2-8.5-1
			c-0.8-0.4-2-1.2-2.6-1.9s-0.5-0.7-0.7-1.7c-0.4-1.5-1.6-2.6-2.7-3.8c-1.1-1.1-2.4-1.5-3.8-2.2c-0.5-0.3-2-0.6-2.4-1.1
			s0-1.1-0.1-1.7c-0.5-3.3-3.2-4.7-5.2-6.9c-1.4-1.5-2-1.3-1.9-3.4c0-1.8,0.2-2-1-3.1c-1.6-1.4-3.2-2.9-4.7-4.3
			c-0.8-0.8-1.8-1.9-2.8-2.4c-1.7-0.8-3.9-0.7-5.6-1.3c-1.6-0.5-3-1.9-4.7-2.3c-1.3-0.3-3.1,0.3-4.4,0.5c-1.9,0.3-3.9,0.5-5.8,0.8
			c-0.1-1.2-0.3-2.4-0.4-3.6c-4.7,0.6-9.4,1.5-14,1.9c-5.4,0.4-11,0.2-16.4,0.4c-1.9,0-2-0.3-3.4-1.6c-2.4-2.2-4.8-4.4-7.2-6.6
			c-1.6-1.4-2.7-2.7-4.7-3.5c-0.7-0.3-1.3-0.6-1.5-1.2c-0.3-0.8,0.2-3.4,0.5-4.3c0.5-1.6,0.5-1.5,1.9-2.2c1.8-0.8,3.7-1.6,5.5-2.4
			c6.1-2.7,12.2-5.4,18.2-8c5.8-2.6,11.6-5.1,17.4-7.7c1.5-0.6,3.2-1.2,4.6-2c1.2-0.8,2-2,2.9-3.2c1.5-1.9,2.3-2.9,4.4-4
			c2.8-1.4,5.6-3.1,8.5-4.2c2.1-0.8,4.4-0.3,6.5-0.9c0.9-0.3,1.7-1,2.5-1.5c1.6-1.1,1.7-0.9,3.5-1.1c1.2-0.2,1.7-1,2.7-1.8
			c1.1-0.8,1.1-0.7,2.5-0.5c2.6,0.4,4.9,0.7,7.5,0.7c1.7,0,1.7-0.4,1.8,1.2c0.1,1.3,0.2,2.3-0.6,3.2c-0.7,0.8-2,1.1-2.6,2
			c-0.6,0.8-1.1,2.6-1.2,3.7c-0.3,2.3,2.3,4,3.4,5.9c0.8,1.5,0.7,2,0.7,3.6c0,1.7,0.4,1.4,1.9,1.9c2,0.8,3.8,2.7,5.8,3.5
			c2.4,1,5.4,1,7.9,1.6c1.7,0.4,2.6,1.7,2.8,3.4c0.4,3.1-0.2,6.5-0.2,9.6c0,0.6-0.2,1.6-0.1,2.2c0.1,0.4,0.6,0.6,0.8,1.1
			c0.2,0.6-0.3,1.6,0,2.1c0.3,0.6,1.5,1.2,2.1,1.6c1.3,1,2.7,2.2,4.2,3c0.7,0.4,1,0.4,1.8,0.6c1.1,0.2,3.7,0,4.5,0.6
			c1.2,0.9,1.5,5.4,1.9,6.9c0.2,1,0.7,2.1,0.8,3.1c0,1.1-0.8,2.2-0.6,3.3c0.3,2,2.2,3.7,2.7,5.7c0.5,2.4,0.9,6.3,0.6,8.7
			c-0.1,1.2,0.1,0.8-0.9,1.7c-0.9,0.8-2.3,1.6-3,2.6c-0.4,0.6-1.3,2.8-1.2,3.5c0.1,1,1.6,1.8,1.8,2.8c0.3,0.9-0.2,2.7-0.2,3.7
			c0,0.7,0.2,3.2-0.2,3.7c-0.2,0.2-1-0.1-1.2,0c-0.2,0.2-0.5,0.9-0.6,1.2C357.1,218.3,356.5,219.4,355.9,220.6z"/>
		<path id="vitacura" d="M233.1,146.7c-0.5,2.4-0.1,5-0.3,7.5c-0.1,1.6-0.5,1.7-1.9,2.6c1.8,0,4.1,0.4,5.8,0c1.1-0.2,2.3-1,3.3-1.5
			c5.4-2.4,10.9-4.8,16.3-7.2c6.2-2.7,12.4-5.5,18.7-8.2c2.8-1.2,6.8-2.2,9.2-4.1c2-1.5,2.8-4.4,4.7-5.9c1.9-1.5,4.9-2.4,7.1-3.6
			c-0.8-1-1.3-2-2.4-2.2c-1.6-0.3-4,0.3-5.6,0.4c-2.6,0.2-6.5,1.3-8.8-0.1c-2.9-1.8-5.2-4.2-7.6-6.6c-1-1-2-1.5-3.2-2.2
			c-1.6-0.8-2.6-0.5-4.3-0.7c-1.2-0.1-0.8-0.4-1.8-0.8c-0.3-0.1-0.9,0-1.2-0.2c-0.3-0.2-0.4-0.6-0.6-0.8c-0.8-0.6-0.8-1.1-2.1-0.6
			c-0.7,0.2-1.2,0.7-1.8,1.2c-0.5-1-0.9-2.7-1.7-3.5s-2.4-1.3-3.4-1.9c-0.6,1.4-0.9,2.9-2.5,3.5c-1.3,0.5-3.2-0.2-4.5,0.4
			c-1.1,0.5-2.2,2.6-3.1,3.5c-0.9,1-1.9,2-2.9,3c0.7,0.7,2.2,1.5,2.5,2.4c0.4,1.2-0.1,4-0.3,5.3s-1.1,1.4-1.5,2.6
			c-0.3,0.9,0,3.1,0.2,4c-1.7,0.8-2.9,0.9-2.5,3.1c0.4,1.7,1.7,2.1,1.1,4.2c-0.4,1.4-1.6,1.7-2.6,2.8
			C234.5,144.2,233.8,145.6,233.1,146.7z"/>
		<path id="lo_barnechea" d="M256.6,113.8c0.8-0.6,2.2-1.9,3.5-1.4c0.5,0.2,0.7,1.3,1.1,1.6c0.3,0.2,0.9,0,1.2,0.2
			c0.2,0.1,0.5,0.5,0.7,0.6c1.3,0.4,2.9-0.1,4.2,0.2c1.1,0.2,2.6,1.2,3.5,1.9c2.1,1.6,3.7,3.9,5.8,5.6c1,0.8,2.6,2.4,3.8,2.7
			c0.9,0.3,2.4-0.2,3.3-0.2c2.1-0.2,4.3-0.3,6.4-0.5c1-0.1,3.2-0.7,4.2-0.3c1,0.4,1.3,2,2.3,2.1c1.1,0.1,2.7-1.5,3.8-1.8
			c1.7-0.5,3.7-0.1,5.5-0.6c1.4-0.4,2.4-1.4,3.6-2.1s2-0.1,3.3-0.5c1.2-0.4,1.9-2.3,3.1-2.5c1.6-0.3,4,0.7,5.6,0.9
			c1.6,0.2,3.2,0.1,4.8,0.1c0.8,0,3.1-0.8,3.7-0.5c0.7,0.4,0.3,1.4,1.1,1.6c0.6,0.2,1.9-0.3,2.6-0.4c-0.1,1.8-0.1,2.2,0.9,3.7
			c2-1.8,4.5-3.4,6.1-5.5c0.2-0.2,0.6-0.4,0.7-0.6c0.2-0.3-0.2-1,0-1.3c0.6-1,2.6-1.1,3.2-2.1c0.5-0.9-0.4-2.6,0.1-3.4
			c0.4-0.6,1.1-0.5,2-0.6c2.6-0.4,6.1-0.3,8.5-1.4c2.3-1,3-3.2,3.9-5.2c0.2-0.5,1.8-2.8,1.6-3.4c-0.1-0.2-0.7-0.5-0.9-0.6
			c-2-1.7-4.7-3-6.9-4.4c-3-1.9-6-3.8-8.9-5.7c-2.1-1.3-4.2-3.2-6.5-4.1c-2.4-1.1-3.7,1.2-5.5,2.7c-0.7-0.8-1.4-1.7-2.2-2.5
			c-0.4-0.5-1.5-2.3-2.2-2.5c-0.4-0.1-1.4,0.4-1.8,0.5c-1.5,0.4-3,0.8-4.4,1.2c-2.6,0.7-5.5,1.9-8.2,2.2c-1.5,0.2-2.8-0.6-4.2-1.2
			c-4.7-1.8-8.9-3.5-13.2-6.1c-1.9-1.2-2.3-1.5-4.4-1.3c-3,0.3-6,0.5-9,0.8c-0.7,0.1-1.7,0-2,0.4c-0.2,0.3,0,1.1-0.2,1.4
			c-0.3,0.6-1.2,1.1-1.7,1.5c-0.3,0.2-1.3,1.4-1.7,1.5c-0.5,0.1-0.5-0.1-1.1-0.5c-1.7-1.1-1.1-1.4-0.2-2.9c-0.6-0.1-1.9-0.6-2.4-0.4
			s-0.6,1-0.8,1.7c-1.5-0.5-2.8-1.2-4.2-0.1c-1.2,1-0.9,2.1-0.1,3.4c1.6,2.8,4.3,4.4,6.8,6.4c-1.9,0.6-1.6,0.3-1.6,2.1
			c0,1.5-0.7,1.5-2,2.4c-0.4-1-1-3.9-1.8-4.5c-1.1-0.8-2.5,1.1-3.3,1.6c-1.7,1.1-3.1,0.9-3.3,3c-0.2,2.2,0,2.5,1.4,4.2
			c-1.7,1-3.4,2-5.1,3c0.3,0.5,1.6,2.1,1.6,2.6c-0.1,0.6-2,1.9-2.4,2.3c-0.8,0.7-1.1,0.9-1.3,1.8
			C256.3,111.3,256.6,112.7,256.6,113.8z"/>
		<path id="huechuraba" d="M174.5,108.5c0,2.8,0.3,4.5,1.2,7.1c0.5,1.3,0.7,3.2,1.5,4.4c0.7,1.1,1.1,0.9,2.5,1.1
			c5.2,0.8,10.3,4.1,15.1,6.3c4.3,1.9,8.5,4,12.8,6c1.8,0.9,3.7,1.6,5.3,2.6c1.9,1.2,3.6,2.9,5.3,4.3c4.9,3.9,9.7,7.9,14.6,11.8
			c0.2-2.1-0.4-4.3,0.6-6.2c0.5-1,1.2-2.1,1.9-2.9c0.6-0.7,1.9-1.2,2.4-2c0.4-0.8,0.2-2.1,0.3-3c0.1,0.1,0.1,0.3,0.2,0.4
			c-0.8-0.8-2.3-3.1-3.4-3.5c-0.5-0.1-1.2,0.4-1.7,0.2c-0.7-0.2-1.6-1.3-2.2-1.8c1.1,0,5.5,0.7,4-1.8c-0.5-0.9-3.8-0.8-5.1-1
			c0.2-2,2.4-3.5,3.7-4.8c-0.9-0.1-2.5-0.6-3.3-0.3c-0.6,0.2-0.2,0.1-0.6,0.4c-0.2,0.1-0.1,0.7-0.2,0.8c-0.2,0.1-0.4,0-0.6,0.1
			c-0.1,0.1-1,0.1-1.2,0.2c0.3-0.1-1.1,0.6-0.9,0.5c-0.7,0.5-0.3-0.2-0.9,0.7c-0.3,0.4-0.3,1.2-0.4,1.7c-1-0.5-3.5-1.2-4.1-2.1
			c-0.5-0.6,0.1-2.6,0.3-3.5c0.3-2.5,1.3-5.9-1.7-7.3c-2.9-1.3-5.4,1.8-6.3,4c-0.7,1.5-0.5,2.4-2,2.5c-1,0.1-0.9-0.3-1.5,0.2
			c-0.5,0.4-0.7,1.6-0.9,2.2c-1.9-0.8-3.9-1.5-5.8-2.4c-0.8-0.4-1-0.2-1.1-0.8c-0.1-0.7,0.9-2.2,1.1-2.8c-0.9,0-1.7-0.1-2.6-0.1
			c0.5-1.5,2.1-4.1,2-5.6c-0.2-2.4-3.4-1.5-4.9-1.5c0-1.6,0.3-1.7-0.8-2.4c-1-0.6-2.6-0.7-3.8-1c0.4-1.2,0.7-2.5,1.1-3.7
			c0.4-1.5,0.7-1.7,0-2.8c-0.3-0.5-1.2-0.9-1.4-1.4c-0.1-0.3,0.5-0.9,0.4-1.2c-0.4-0.7-2.6-1.4-3.3-1.8c-0.3,1.3-0.1,2-1.6,1.8
			c-0.9-0.1-1.2-1-2.2-0.7c0.4,1.6,0.2,1.9-1.1,3.1c-1.1,1-1.5,0.9-3.1,0.9c0.3,1.3,0.3,1.2-0.4,2.2c-1.1,1.5-1.3,0.5-2.7,1.1
			c-0.8,0.4-0.6,1.9-1.3,2.3C176.9,109.2,175.2,108.6,174.5,108.5z"/>
	</g>
	<g id="vineta">
		<rect x="5" y="5" width="90" height="60"/>
		<rect x="10" y="9.6" width="10" height="9.2"/>
		<text transform="matrix(1.0833 0 0 1 25 16.0767)" class="st0 st1">Alto</text>
		<rect x="10" y="23.5" width="10" height="9.2"/>
		<text transform="matrix(1.0833 0 0 1 25 29.9229)" class="st0 st1">Medio alto</text>
		<rect x="10" y="37.3" width="10" height="9.2"/>
		<text transform="matrix(1.0833 0 0 1 25 43.769)" class="st0 st1">Medio bajo</text>
		<rect x="10" y="51.2" width="10" height="9.2"/>
		<text transform="matrix(1.0833 0 0 1 25 57.6152)" class="st0 st1">Bajo</text>
	</g>
</g>
<g id="Capa_2">
	<path id="padre_hurtado_1_" class="st2" d="M101.6,282.8c4.2,4.6,8.4,8.2,12.6,12.8c-1.7-0.4-3.8-0.6-5.4-1.3
		c-1.3-0.6-5.2,0.8-6.4,1.6c-0.7,0.5-0.2,0.6-0.9,0.4c-0.5-0.1-1.3-1.1-1.7-1.4c-0.8,0.9-3,2.9-3.2,4c-0.1,0.9,1.5,1.8,2.4,2.6
		c-0.7,0.7-1.4,1.4-2.1,2.1c2.2,1.4,1.8,1.3,0.8,3.7c-0.6,1.4-1.4,5-2.6,6c-0.9,0.7-3.6,0.7-4.5,0.2c-1.5-1-2.9-3.2-4.1-4.6
		c1.8-1.2,3.6-2.4,5.3-3.6c-0.6-0.6-1.1-1.3-1.7-1.9c0.7-0.6,1.4-1.1,2.2-1.7c-1.6-1.9-4-5.7-6.5-3.2c-1.5,1.5-2.8,3.6-4.1,5.3
		c-1.3,1.7-1.3,1.2-3.2,0.2c2.6-2.7,5.2-5.4,7.8-8.1c0.5-0.5,2-1.6,2-2.3c0-1.1-3-4-3.6-4.8c-0.8-1.1-2.4-2.4-2.1-3.8
		c0.2-0.9,3.2-3.1,4.3-3c1.1,0.1,1.7,3,2.5,3.8c0.8,0.7,0,0.5,1.1,0.3c0.7-0.1,1.5-1.1,2.2-1c0.9,0.1,1.7,1.9,2.6,2.2
		c0.8,0.3,0.4,0.2,1.3-0.3C98.3,285.8,100,284.1,101.6,282.8z"/>
	<path id="maipu_1_" class="st2" d="M114.2,295.5c-3.8-4.2-7.5-7.4-11.3-11.6c-1.1-1.2-2.1-2.4-3.2-3.6c-0.3-0.4-1.7-1.5-1.8-2
		c-0.2-1.5,3.9-2.9,4-4.5c0.1-1.1-2.3-2.3-2.4-3.4c-0.1-0.8,0.6-2.3,0.9-3.1c0.9-3.1,1.8-5.7,1.7-8.9c0-4.9-0.5-9.8-0.5-14.7
		c0-2.7-0.5-8.1,1.9-10.1c1.8-1.5,5.7-1.7,7.9-2.2c3-0.7,6-1.5,8.9-2.2c-2.8-0.7-5.6-1.4-8.5-2c4.6-3.3,9.1-6.7,13.7-10
		c2-1.5,2.7-1.3,2-3.7c-0.8-2.7-1.4-4.9-1.4-7.7c3.8,0.8,7.7,1.6,11.5,2.4c1.6,0.3,4.5,0.4,5.9,1.3c0.3,0.2,0.6,0.1,0.7,0.3
		c0.3,0.4-0.2,2.5-0.2,3.1c1.3-1.1,2.5-2.2,3.8-3.3c0.1,0.9,0,1.2,0.5,1.7c0.7,0.6,2.5,0.8,3.4,1.1c0.6,0.2,2.8,0.5,3.1,1
		c0.2,0.3,0,0.6-0.1,1.2c-0.1,1-0.6,5.5-1.3,6.1c-1.1,0.7-3.8-0.7-4.5,0.4c-0.3,0.5,0,2.3,0,2.9c0,1.2,0,2.5,0,3.7s0.2,2.5,0,3.7
		c0,0.3,0.1,0.7,0,0.9c-0.1,0.3-0.4,0-0.7,0.3c-2.4,3.6-3.6,8.5-5.2,12.6c3.4,0,6.7,0,10.1,0c1,0,1.5-0.1,2.3,0.4
		c0.5,0.3,3.2,2.2,3.3,2.8s-1.8,2.7-2.1,3.2c-1.6,2.5-3.2,4.9-4.8,7.4c-8.2,12.6-16.5,24.2-24.7,36.8c-0.8,1.3-0.9,2.1-2.3,2.1
		c-1.9,0.1-4.3-0.9-6.1-1.3C117.4,296.1,115.8,295.8,114.2,295.5z"/>
	<path id="cerrillos_1_" class="st2" d="M155.3,213.5c-0.3,1.6-0.7,3.3-1,4.9c-0.4,1.8,0,2.2-1.7,2.3c-1.3,0.1-2.7-0.4-3.3,0.6
		s0,4.1,0,5.3c0,1.5,0.5,3.9,0,5.3c-0.3,0.7-0.2,0-0.7,0.7c-0.9,1.3-1.4,2.4-1.9,3.9c-1.1,2.9-2.2,5.8-3.3,8.7c2.5,0,5.1,0,7.6,0
		c2.6,0,3.9-0.4,5.8,1.2c0.4,0.4,2.2,1.4,2.3,1.9s-1.4,2.2-1.7,2.6c-1.4,2.2-2.9,4.4-4.3,6.6c4.7,2.1,9.4,4.3,14.1,6.4
		c0.1-2.6-0.2-5.4,0.4-7.9c0.6-2.7,1.9-5.3,2.8-7.9c3-8.4,6-16.8,9.1-25.2c1-2.7,1.5-4.1,1.3-7c-5.1,0.8-10.2,1.6-15.3,2.3
		c-1.7,0.3-2.6,0.7-4-0.1C159.3,216.9,157.3,215,155.3,213.5z"/>
	<path id="estacion_central_1_" class="st2" d="M148.6,198.1c0.1,3.8,0.3,7.6,0.4,11.5c-0.3-0.1-0.7,0-1-0.1c0.1,1-0.1,1.4,0.5,1.9
		c0.7,0.6,2.7,0.9,3.7,1.2c1.6,0.5,2.8,0.8,4.1,1.8c1.1,0.9,2.2,1.7,3.3,2.6c0.7,0.5,1.7,1.7,2.5,2c0.9,0.3,2.2-0.2,3.2-0.4
		c4.9-0.8,9.8-1.7,14.8-2.3c3.2-0.4,6.5,0,9.7,0c-0.1-1.6-0.1-3.3-0.2-4.9c-1.5,0.1-3,0.2-4.5,0.3c1.6-4.7,0.6-10.7,0.7-15.6
		c0-0.4,0.2-1.6,0.1-1.9c-0.1-0.2-0.7,0-0.7-0.2c-0.2-0.4-0.2-0.3-0.4-1c-0.3-1.3,0-3,0-4.3c-2,0.1-4,0.2-6,0.3
		c-0.4,0-2.2-0.2-2.6,0.1c-0.5,0.4,0.1,1.5-0.2,2.2c-0.4,1,0.2,0.4-0.9,0.7c-1,0.3-2.3,0.1-3.3,0.2c-1.9,0.1-3.9,0.2-5.8,0.3
		c0.1,2.1,0.6,4.5,0.4,6.6c-0.1,1.6-0.6,1.5-2.4,2c-1.4,0.3-2.5,0.3-3.9,0C156.1,200.3,152.3,199.1,148.6,198.1z"/>
	<path id="pudahuel_1_" class="st2" d="M109.1,117.5c3.7,3.6,7.5,7.2,11.1,10.9c1.4,1.4,2.5,3.1,3.9,4.5c1.8,1.7,4,3.1,5.9,4.5
		c-5.3,5.7-10.6,11.3-15.9,17c-0.5,0.5-1.4,1.2-1.6,1.8c-0.6,1.5-0.2,4.2-0.2,5.8c-0.1,1.4-0.6,3.6,0.4,4.3c0.4,0.2,1.2,0,1.5,0.3
		c0.2,0.2,0.1,0.7,0.2,1c0.4,0.7,0.8,1.5,1.2,2.1c1,1.4,2.3,3,3.8,3.8c0.6,0.3,2,0.8,2.6,0.7c1-0.1,0.8-0.5,1.3-1.7
		c1.2,1.7,1.7,2.2,3.8,2.8c1.7,0.5,3.5,0.1,5.2,0.4c1.3,0.2,2.3,1,3.7,1.2c1.8,0.3,3.8,0.2,5.6,0c-0.1,3.7-0.1,7.4-0.2,11.1
		c0,0.5-0.2,1.5,0,2c0.3,0.7,0.3-0.1,1,0.6c0.5,0.5,0.3,0,0.5,0.9c0.2,1,0,2.4,0,3.5c0,2.1,0.2,1.8,2.3,2.3c1.3,0.3,3,0.3,3.4,1.3
		c0.6,1.5,0.1,4.4,0.2,6c0,1.6,0.1,3.3,0.1,4.9c-1.7-0.4-3.7,2.4-4.8,3.4c0-0.7,0.5-2.7,0.1-3.2c-0.3-0.4-2.3-0.5-2.7-0.6
		c-3.6-0.8-7.3-1.6-10.9-2.4c-1.2-0.3-2.8-0.3-4-0.9c-1-0.5-0.7,0-1-1.4c-0.3-1.5-0.1-3.7-1.6-4.6c-1.7-1-4.2,0.3-6,0.2
		c0.3,1.7-0.4,3.1-1.7,4.1c-0.5,0.4-1.1,0.8-1.7,1.1c-1.3,0.7-0.8,0.5-1.8,0c-3-1.6-5.9-1.8-9.2-2.7c-0.1,0.6-0.1,1.8-0.5,2.2
		c-0.6,0.8-2.2,0.4-3.3,0.1c-1.2-0.3-2.3-0.9-3.5-1.2c-0.7-0.1-1.8,0.2-2.2-0.1c-0.6-0.4-0.5-1.5-1.1-1.9c-0.8-0.5-2.5-0.3-3.3,0
		c-1,0.5-1.1,0.7-1,1.8c0.1,1,0.9,1.3,0.8,2.2c-0.1,0.6-0.9,1.4-1.4,1.7c-3.5,2.1-6.6-3.2-6.9-6c-0.3-2.7,2.1-5,4-6.6
		c-1.9-0.5-2.2-2.1-2-3.9c0.2-1.8,1.7-2.7,2.1-4.4c0.3-1.3-0.8-2.2-0.7-3.4c0.1-0.9-0.1-0.3,0.7-1.1c1-1,1.8-1,2-2.2
		c0.2-0.9-0.7-2.1-0.2-2.7c0.6-0.7,2.9-1.1,3.7-1.4c1.2-0.5,3-0.8,4.1-1.5s0.9-0.5,0.8-2.1c0.6,0.2,2.2,1.2,2.8,1.1
		c0.4-0.1,1.9-2.2,2-2.6c0.5-1.5-0.5-4.1-0.7-5.7c0.7,0.1,1.4,0.1,2.1,0.2c0.5-7.1-0.7-14.3-1.4-21.3c-0.3-3.3-0.6-6.6-0.6-9.9
		c0-1.7-0.2-4.6,1.3-5.3c2-0.9,7.8,0.6,8.5-1.3c0.5-1.4-0.2-4.2-0.3-5.7C109.2,120.5,109.1,119,109.1,117.5z"/>
	<path id="lo_prado_1_" class="st2" d="M141.6,182.3c0,2.3-0.6,5.1-0.1,7.3c0.4,1.6,0.2,0.1,1.3,1.2c0.4,0.4,0.2,2.1,0.2,2.8
		c0,2.3-0.7,3.1,1.5,3.6c2.8,0.7,5.6,1.4,8.5,2.1c2,0.5,4.1,1,6.1,1.5c1.9,0.5,3.5,0.7,5.4,0c1.8-0.6,1.9-0.6,1.8-2.3
		c-0.3-4.5,0.1-9.6-0.7-14c-0.2-1.2,0.2-0.7-0.6-1.2c-1.1-0.6-3.4-0.4-4.6-0.5c-1.2-0.1-3.5-0.8-4.6-0.5c-0.9,0.3-0.7,0.8-0.9,2
		c-1.8-0.8-3.7-2.2-5.7-2.3C146.8,181.7,144.1,182.1,141.6,182.3z"/>
	<path id="cerro-navia_1_" class="st3" d="M112,166.4c0-0.8-0.2-2.5,0.3-2.9c0.6-0.5,3.6,0,4.4,0.1c0.9,0,1.9,0,2.6,0.3
		c0.2,0.1,0,0.6,0.2,0.7c0.2,0.1,0.7,0,0.9,0c0.4,0.1,1.2,0.1,1.6,0c1.3-0.3,2.4-1.5,3.7-1.9c1-0.3,2.1-0.2,3.1-0.2
		c1.9,0,3.8-0.1,5.7-0.1c3.4,0,6.7,0,10.1,0c1.2,0,2.4-0.1,3.6,0c0.7,0.1,1.5,0.6,2.2,0.6c1,0,1.7-1.2,2.8-1.5
		c1.2-0.4,1.7,0.1,2.6,0.7c2.5,1.6,2.6,1.9,2.1,4.4c-1.1,6-2.1,12-3.2,17.9c-1.8-0.8-3.7-2.2-5.6-2.3c-2.4-0.2-5.1,0.2-7.5,0.3
		c0-1.8,0.1-3.6,0.1-5.3c-1.8,0.2-3.6,0.2-5.4,0c-1.5-0.1-2.5-1-3.9-1.2c-1.7-0.3-3.4,0-5-0.4c-2.1-0.6-2.7-1.1-3.9-2.9
		c-0.7,2-0.8,2.1-3,1.3c-1.2-0.4-2.2-1.1-3.2-2.1c-0.9-1-2.1-2.4-2.6-3.7c-0.2-0.4-0.2-1.2-0.4-1.5C114,166.5,112.4,166.4,112,166.4
		z"/>
	<path id="santiago_1_" class="st2" d="M184,217.8c2.3,0.1,4.5,0.2,6.8,0.3c0-1.9,0.5-2.3-1.5-2.3c6.7,0.1,13.5,0.3,20.2,0.4
		c2.3,0.1,3.5-0.7,5.6-1.7c1.9-0.9,3.8-1.8,5.7-2.7c0.5-0.3,2.1-0.7,2.3-1.2c0.1-0.4-0.5-1.7-0.6-2.1c-0.5-1.7-0.9-3.4-1.4-5.1
		c-1.1-4.2-2.3-8.4-3.4-12.5c-0.9-3.1-1.4-6.8-2.7-9.8c-0.7-1.5-1.5-1.3-3.2-1.8c-7.4-2.1-14.7-4.2-22.1-6.3
		c0.1,0.6,0.1,1.1,0.2,1.7c-2.7-0.1-6.3-3.3-6.3,1.5c0,2.5,0.4,5.1,0.6,7.7c-2.4,0.1-4.8,0.1-7.2,0.4c-1.2,0.2-0.9-0.2-1.2,0.8
		s0.1,2.7,0.1,3.7c2.9-0.2,5.9-0.3,8.8-0.5c0,1.4-0.3,3,0,4.3c0.1,0.4,0.1,0.7,0.2,1c0.1,0.2,0.8,0.1,0.9,0.2
		c0.2,0.4-0.1,1.5-0.1,1.9c-0.1,4.9,0.9,10.9-0.7,15.6c1.5-0.1,3-0.2,4.5-0.3c0,1.6,0.1,3.3,0.1,4.9c-1.8,0-3.6,0-5.3,0"/>
	<path id="renca_1_" class="st2" d="M132.3,139.1c-0.7-0.5-1.8-1.7-2.4-1.5c-0.7,0.2-1.8,1.9-2.2,2.4c-2.9,3.1-5.8,6.2-8.7,9.2
		c-1.3,1.4-2.7,2.8-4,4.3c-0.7,0.7-1.9,1.6-2.3,2.5c-1,1.8-0.4,5.2-0.5,7.3c1.6,0,3.2,0,4.9,0.1c0.5,0,1.6-0.2,2.1,0
		c0.4,0.2,0.3,0.7,0.8,0.9c1.5,0.7,3.3-0.6,4.5-1.2c1.5-0.8,2.2-0.8,3.9-0.8c2.9,0,5.7-0.1,8.6-0.1c3.8,0,7.9-0.5,11.6,0
		c1.4,0.2,1.8,0.8,3.1,0.1c0.7-0.4,1.3-0.9,2.1-1.1c1.3-0.4,1.2,0.3,1.2-1.4c2.1,0.1,2.7-0.5,4.6-1.4c1.6-0.7,3-0.5,4.7-0.5
		c2,0,2.5-0.1,4.1,1c1.3,1,2.8,2,4,3.1c2.7,2.5,4.7,4.8,8.1,6.7c2.9,1.6,6.1,2.8,9.2,4.2c0.5-3-4.4-4.9-5.2-7.6
		c-1.1-3.8,0.1-8.1-1.6-11.7c-1.7-3.5-3.7-6.9-5.5-10.4c-1.5-2.8-2.5-5.8-3.7-8.7c-0.6,1-1.7,2.7-1.9,0.4c-1.3,0.7-2.5,1.6-3.9,1.8
		c-2,0.3-1.8,0.3-3.1,2c-0.8,1-2,3.6-3.1,4.2c-1.1,0.6-2.5-0.6-3.4-0.5c-1.3,0.2-2.3,2-3.6,2.3c-0.8,0.2-1.9,0-2.4-0.2
		c-0.1,0-0.1-0.4-0.5-0.5c-0.3-0.1-1.1-0.2-1.4-0.1c-0.8,0.3,0.5,0.7-1.1,0.7c-0.8,0-0.4-0.4-1.2-0.4c-1.1,0-0.8,0.4-1.6,0.6
		c-0.9,0.2-1.6-0.5-1.9,0.7c-0.7-0.8-1.5-2.2-2.3-2.7c-0.7-0.4-1.5,0-2-0.9c-0.5,1.3-3.6,1.1-4.6,0.6s-1.1-1.5-1.5-2.2
		c-0.2-0.5,0.2-0.9-0.2-1.2C133.6,138.9,132.6,139.1,132.3,139.1z"/>
	<path id="quinta_normal_1_" class="st2" d="M189.8,174.8c-0.3-2.2-0.9-2-2.9-2.9s-4-1.8-6-2.8c-3.2-1.7-5.5-3.8-8-6.3
		c-1.2-1.2-2.5-2.1-3.8-3.1c-1.9-1.4-2.1-1.7-4.4-1.7c-1.6,0-3.4-0.3-4.9,0.3c-2.1,0.8-2.6,1.8-5,1.7c0,1.3,0,1.3,0.9,2.1
		c0.6,0.5,2.3,1.3,2.6,2.1c0.4,1-0.7,3.8-0.9,4.9c-0.8,4.4-1.6,8.9-2.4,13.3c1.5,0.2,3.1,0.3,4.6,0.5c0.9,0.1,5-0.1,5.6,0.6
		c0.5,0.5,0.2,3.2,0.2,4c0.1,1.7,0.1,3.4,0.2,5c2.4-0.1,4.8-0.3,7.1-0.4c0.5,0,2.5,0.2,2.8-0.2c0.3-0.3,0-2.3,0-2.9
		c0-1.1-0.3-2.5-0.1-3.5c0.3-1.2-0.3-0.7,1-1c2.3-0.5,5-0.3,7.4-0.4c-0.2-2.5-0.6-5.1-0.6-7.7C183.6,171.5,187.1,174.6,189.8,174.8z
		"/>
	<path id="recoleta_1_" class="st3" d="M214.7,180.1c-1.9-0.6-3.9-1.1-5.8-1.7c-0.9-0.3-4.7-0.7-5.3-1.5c-0.6-0.9,0.4-4.8,0.5-5.9
		c0.2-2,0.3-3.9,0.5-5.9c-0.5,0-2,0.1-2.3-0.1c-0.3-0.3,0-2.5,0-2.9c0-2.2,0-4.4,0.1-6.7c-1.3,0-3-0.1-3.4-1.5
		c-0.3-0.8,0.4-1.8,0.2-2.6c-0.2-0.6-0.6-1-1.1-1.4c1.4-0.4,0.8-2.6,0.8-3.7c0-2.6,0-5.2,0-7.7c0-1.4,0.2-3,0-4.4
		c0,0-0.3-0.3-0.4-0.7c-0.1-0.4-0.1-1.1,0-1.4c0.1-0.4,0.4-0.1,0.5-0.4c0.1-0.5,0.2-1,0.3-1.5c4.2,2.1,9,3.8,12.9,6.3
		c4.2,2.7,8,6.5,11.9,9.6c2.3,1.8,4.5,3.6,6.8,5.5c0.3,0.2,1.1,0.7,1.3,1c0.2,0.4,0.2,2.7-0.1,3.1c-1,1.8-4.2,2.2-5.3,3.9
		c-0.6,0.9-0.7,1.6-1.4,2.4c-1,1.2-2.2,2.8-3.4,3.7c-0.9,0.7-1.5,0.2-2.6,0.6c-0.8,0.3-2.4,1.6-2.7,2.3c-0.5,1.1-0.2,2.7-0.6,3.8
		c-0.5,1.4-1.4,2.8-2.1,4.1C215.2,176.2,214.7,179.2,214.7,180.1z"/>
	<path id="independencia_1_" class="st2" d="M187.9,150.8c-1.8,0.8-3.6,1.6-5.4,2.4c1.4,3,1.4,6.1,1.7,9.5c0.1,1.1,0,2.6,0.4,3.6
		c0.7,1.5,2.7,3,3.8,4.3c0.3,0.3,1,0.9,1.2,1.3c0.2,0.4-0.2,1,0.1,1.3c0.5,0.6,3.3,0.9,4.1,1.2c3.3,0.9,6.6,1.8,9.8,2.8
		c0.3-3.9,0.7-7.9,1-11.8c-0.5,0-2,0.1-2.3-0.1c-0.3-0.3,0-2.5,0-2.9c0-2.2,0-4.4,0.1-6.7c-1.4,0-3-0.2-3.4-1.7s0.9-3-1.1-3.9
		c-1.3-0.5-4.3-0.3-5.7-0.2C190.7,149.9,189.3,150.4,187.9,150.8z"/>
	<path id="quilicura_1_" class="st2" d="M122.2,127.3c-0.3,0.3-1.5,1-1.6,1.4c-0.1,0.3,0.3,0.4,0.5,0.8c0.6,1.1,2,2.5,2.9,3.4
		c1.9,1.8,4.2,3.2,6.2,4.8c0.7,0.5,1.4,1.3,2.2,1.5c0.5,0.2,1.2-0.2,1.5,0.2c0.2,0.3-0.1,1.2,0,1.6c0.7,1.7,5.2,3.1,6,0.9
		c0.5,0.9,1.3,0.5,2,0.9c0.9,0.5,1.7,1.9,2.3,2.7c0.3-1.2,0.9-0.5,1.7-0.7s0.7-0.6,1.8-0.6c0.7,0,0.5,0.4,1.2,0.4
		c1.3,0,0.5-0.5,1.1-0.7c0.7-0.2,1.5,0.4,1.8,0.4c0.5,0.1,1.3,0.5,2.2,0.3c1.5-0.3,2.5-2,3.9-2.3c1-0.2,2.2,1.1,3.4,0.5
		c1.1-0.5,2.4-3.2,3.1-4.2c1.3-1.8,1.1-1.7,3.1-2c1.4-0.2,2.6-1.1,3.9-1.8c0.1,1.5,1.1,1.5,1.6,0.2c0.3-0.9,0.2-0.9-0.2-1.8
		c-1-2.8-2.1-5.6-3.2-8.4c-0.4-1.2-1.6-3.3-0.4-3.9c1-0.4,3.1,0,4.2-0.1c1,0,2.1,0,3.1,0c-1.1-3.2-3.7-7.6-3-11.2
		c0.1-0.3,0-0.7,0.1-0.9c0.1-0.3,0.8-0.4,0.9-0.6c0.1-0.4-0.2-1-0.1-1.5c0.3-0.9,0,0,0.5-0.7c0.3-0.1,0.5-0.2,0.8-0.3
		c0.4-0.1,0.6-0.4,0.5-1c0.4-0.7,0.6-1.6,0.9-2.3c0.4-0.9,0.9-2,1.8-2.6c1.1-0.7,2.9-0.2,2.9-2.1c0-1.2-0.9-0.9-1.2-1.5
		c-0.1-0.3,0-1,0-1.3c-0.1-0.7,0-1.5,0-2.3c0-0.7,0.3-2.6-0.1-2.9c-0.5-0.5-2.1,0.4-2.6,0c-1.7-1-0.8-5.3,0.4-1.3
		c-0.5-2.8,0.5-3.3-3-3.7c-1.6-0.2-1.3-1.1-2.5-2.1c-0.6-0.5-1.2-0.8-2-0.9c-1.2,0-0.9,0.4-1.9,0.6c-2,0.5-2.9,0.1-4.5-1.3
		c-1.4-1.2-3.5-1.7-5.4-1c-0.9,0.3-0.6,0.1-0.9,1.3c-0.2,1.2-0.4,2.4-0.6,3.6c-0.4,1.7-0.7,1.4-2.4,1.9c-4.1,1.1-8.2,2.3-12.3,3.4
		c4,5.4,8.1,10.9,12.1,16.3c-0.5,0-0.9,0-1.4,0c0,0.6,0.1,1.1,0.1,1.7c-2,0-3.9,0-5.9,0c0-0.9,0.1-1.8,0.1-2.7c-1.3,0-2.6,0-3.9,0
		c0,1.7,0.1,3.4,0.1,5.1c-1.1-0.1-3.4-0.9-3.9-1.9c-0.3-0.6,0.4-1.7,0.1-2.4c-0.9-1.7-4.1-0.7-5.4-0.5c0.7,0.5,1.9,1.8,2.9,1.8
		c-1.1,0-2.7-0.4-3.7-0.1c-0.2,0.1-0.4,0.6-0.8,0.7c-0.3,0.1-1.3-0.1-1.4,0c-0.2,0.1-0.3,1-0.4,1.2c-0.7,1.5-1.1,3.2-1.7,4.8
		c-0.7,1.8-0.6,0.8-2.3,1.2c-1.3,0.3-0.9,0.6-0.9,2.2c0,1.1,0.3,2.8-0.1,3.8C126.1,123.6,122.1,125.1,122.2,127.3z"/>
	<path id="conchali_1_" class="st2" d="M198.2,149.9c1.9-0.4,0.7-9.1,0.7-10.6c0-1.6,0.2-3.4,0-5.1c-0.1-0.4-0.4-0.4-0.4-1.3
		c0-1.2,0.4-0.9,0.6-1.8c0.3-1.5-0.4-1.4-1.7-1.9c-2-0.9-4-1.8-6.1-2.7c-3.4-1.5-6.9-3.6-10.4-4.7c-3.2-1-6.8-0.6-10-0.5
		c-1.7,0-2.2-0.2-1.8,1.8c0.4,1.9,1.4,3.7,2.1,5.5c2.4,6.5,4.8,12.8,8.1,18.9c0.6,1.2,1.2,2.3,1.9,3.5c0.2,0.4,0.8,2,1.2,2.3
		c0.9,0.4,4-1.6,5-2C191,149.8,194.4,149.9,198.2,149.9z"/>
	<path id="san_bernardo_1_" class="st2" d="M167.2,263.7c2.3,1,4.7,2.1,7,3.1c1.7,0.8,3.4,1.5,5.1,2.3c0.4,0.2,2.2,0.7,2.4,1.1
		c0.2,0.3-0.6,1.8-0.7,2.1c-0.6,1.7-1.1,3.3-1.7,5c-0.9,2.5-1.7,5.1-2.6,7.6c-0.7-0.3-1.4-0.6-2.1-0.9c0,2.4,0.5,5.4,0,7.7
		c-0.6,2.6-2.6,5.4-3.7,7.9c4.9,2.2,9.9,4.3,14.8,6.5c4,1.7,7.7,2.5,12,3.4c-1.9,7.8-3.7,15.6-5.6,23.5c-0.5,2.3-1.1,4.6-1.6,6.9
		c-0.3,1.3-1,2.9-1,4.2c0,1.2,0.5,1.5,1.4,2.6c0.5,0.6,1.3,1.3,1.6,1.9c0.1,0.2-0.4,0.5-0.3,0.8c0.2,0.4,0.7,0.8,1,1.1
		c-0.9,0.3-1.8,0.6-2.8,0.9c1.6,3.1,3.2,6.3,4.8,9.4c0.5,0.9,1.3,2,1.5,3c0.2,0.8,0.1,4.7-0.4,5.3c-0.2,0.3-1.3,0.5-1.7,0.2
		c-0.6-0.3-0.5-0.8-0.6-1.6c-0.1-0.5-0.1-2.6-0.5-3c-0.4-0.5-1.4,0.3-2,0c-0.5-0.3-0.1-1.5-0.5-1.9c-0.2-0.2-0.8,0-1.1,0
		c-2-0.1-4.1,0.4-6.1,0.6c-1.6,0.1-4.7,1.1-6.2,0.6c-1.2-0.4-0.4-3.2-2.3-2.3c0.5,2.6,0.3,4.4,3,5.5c0.4,0.2,0.7,0.2,1.1,0.3
		c0.3,0.1,0.6-0.1,0.9,0c0.2,0.1,0.2,0.4,0.4,0.4c0.4,0.2,0.4,0.3,1.1,0.5c0.6,0.2,1.3,0.1,1.9,0.1c-0.9,1.4-3.5,1.6-4.9,2
		c-1.6,0.5-3.3,1.2-5,1.3c-2,0.1-3-0.4-4.6-1.3c-1.1-0.6-2.1-1.2-3.2-1.8c-0.4-0.2-2.2-0.9-2.3-1.4c-0.4-1,1.7-3.9,2-5
		c0.3-1.2,0-2.1-0.2-3.4c-0.5-2.5-0.9-5.1-1.4-7.6c-0.1-0.7-0.1-1.9-0.5-2.6c-0.5-0.8,0.1-0.2-0.8-0.8c-1.3-0.8-0.9,0.1-1.5-1.3
		c-0.5-1.2-0.9-2.6-1.3-3.9c-0.7-2.3-0.3-2.9,0.6-5.2c-0.6-0.1-1.4-0.4-2-0.3s-0.9,0.6-1.4,0.8c-0.5,0.2-3.5,0.1-3.8-0.4
		c-0.8-1.3,1.4-6,1.8-7.3c0.7-2,2.6-5.2-0.3-6.1c-0.4-0.1-1.1,0.2-1.4-0.1c-0.3-0.3-0.4-1.6-0.5-2.1c-0.4-1.5-0.6-1.8-1.6-2.9
		s-0.4-1.4,0.2-2.9c0.7-1.9,1-1.7-0.4-3.1c-1.2-1.2-1.8-1.3-1.8-2.8c-0.1-1.6,0.6-2.8,1.3-4c0.3-0.6,0.5-0.6,0.6-1.2
		c0.1-0.7-0.5-1.6-0.3-2.2c0.3-1.1,2.1-1.9,2.7-2.9c1.1-1.7,0.7-4.5,0.9-6.5c0.2-2.7-0.1-6.2,0.7-8.8c0.8-2.6,3-5.4,4.4-7.8
		c1.3,0.8,2.5,1.6,3.8,2.4C164.6,274.2,165.9,268.9,167.2,263.7z"/>
	<path id="el_bosque_1_" class="st3" d="M181.6,270.2c4,1.7,8.1,3.7,12.2,5.2c3.2,1.2,7,1.3,10.4,1.9c-2.4,11.8-4.2,20.4-5.4,26.5
		c-0.3,1.4-0.3,3.9-1.1,5.1c-0.1,0.1,0,0.6-0.1,0.7c-0.3,0.2-2.2-0.5-2.5-0.5c-3.9-0.8-6.8-1.6-10.3-3.2c-4.7-2-9.3-4.1-14-6.1
		c1.2-2.5,3-5.2,3.7-7.9c0.6-2.3,0-5.3,0-7.7c0.7,0.3,1.4,0.6,2.1,0.9C178.3,280.1,180,275.2,181.6,270.2z"/>
	<path id="la_cisterna_1_" class="st2" d="M204.2,277.2c-3.1-0.5-6.6-0.7-9.6-1.6c-3.1-0.9-6.2-2.7-9.2-3.9c-0.6-0.2-3.5-1-3.7-1.6
		c-0.1-0.3,0.6-1.6,0.7-1.9c1.5-3.9,3-7.8,4.5-11.7c1.3-3.4,2.3-7.3,4.1-10.5c0.5-0.8,0.1-0.7,0.8-0.9c1.1-0.2,3.4,1,4.4,1.3
		c4.1,1.2,8.2,2.4,12.3,3.6c0.5,0.1,1.6,0.3,1.7,0.6c0.3,0.5-0.6,2.5-0.7,3.1C207.8,261.6,206,269.4,204.2,277.2z"/>
	<path id="los_espejo_1_" class="st3" d="M167.4,256.3c-0.1,1.9-0.7,4.7-0.2,6.5c0.2,0.8-0.1,0.4,0.3,0.9c0.4,0.5,1.6,0.7,2.2,1
		c4,1.8,8,3.6,12,5.4c3-7.9,6.1-15.8,9.1-23.6c0.4-1.1,0.6-1,0.1-1.6c-1-1.1-4-1.8-5.4-2.4c-3.8-1.6-7.5-3.3-11.3-4.9
		C172,243.8,169.7,250,167.4,256.3z"/>
	<path id="pedro_aguirre_cerda_1_" class="st3" d="M190.8,215.8c3.8,0.1,7.6,0.2,11.4,0.3c-3.6,9.7-7.2,19.3-10.9,29
		c-3.3-1.4-6.6-2.9-9.8-4.3c-2-0.9-3.9-1.7-5.9-2.6c-1.2-0.5-1.2-0.3-1.2-1.2c-0.1-1.3,1.4-3.8,1.8-5c0.9-2.4,1.7-4.8,2.6-7.1
		c1.2-3.2,2.2-5.4,2-8.8c1.2,0,2.3,0.1,3.5,0.1c0,0.6-0.1,1.2-0.1,1.8c2.3,0.1,4.5,0.2,6.8,0.3C190.9,217.5,191,216.4,190.8,215.8z"
		/>
	<path id="san_miguel_1_" class="st2" d="M191.3,245c1.7-4.5,3.4-9,5-13.5c1.2-3.3,2.4-6.5,3.7-9.8c0.5-1.3,1-4.7,2.1-5.6
		c0.9-0.8,4.8-0.1,6.1-0.1c0.5,0,2.9-0.3,3.3,0.1c0.2,0.2,0.1,0.7,0.1,0.9c0.7,2,0.5,4.9,0.8,7c0.4,3.5,0.8,7.1,1.1,10.6
		c0.6,5.4,1.2,10.9,1.8,16.3c-4,0-7.3-1.2-11.1-2.3C199.9,247.5,195.6,246.3,191.3,245z"/>
	<path id="san_ramon_1_" class="st3" d="M215.3,251.1c-1.9,0-3.2-0.1-5-0.6c-2.5,10.9-5.5,24.7-7.8,35.6c5.6,0.7,11.8,1.5,17.4,2.2
		C218.3,276.8,216.8,262.5,215.3,251.1z"/>
	<path id="la_granja_1_" class="st2" d="M215.3,251.1c1.1,8,2.1,15.9,3.2,23.9c0.3,2.2,0.6,7.5,0.9,9.7c0.1,0.7,0,2.9,0.5,3.5
		c1.4,1.8,8-0.9,9.6-1.3c2-0.5,3.4-0.1,2.9-2.2c-0.5-2.2-1-7.4-1.6-9.6c1,0,2,0,3,0c-0.2-6.9-0.4-13.7-0.6-20.6
		c-0.1-1.8-0.1-3.6-0.2-5.4c0-0.4,0.2-2.4-0.1-2.6c-0.3-0.3-3.2-0.2-3.8,0c-1.4,0.4-2.9,1.7-4.1,2.5c-1.3,0.7-2.4,1.6-3.8,1.9
		C219.2,251,217.2,250.9,215.3,251.1z"/>
	<path id="san_joaquin_1_" class="st2" d="M215.3,251.1c-0.7-6.4-1.4-12.7-2.1-19.1c-0.4-4.1-0.9-8.2-1.3-12.2
		c-0.1-0.8-0.6-2.4-0.3-3.1c0.2-0.6,0.2-0.5,1-0.9c3.4-1.9,7-3.4,10.5-5c1.1,3.2,1.8,6.3,2.5,9.6c0.6,2.8,2.1,5.4,2.9,8.2
		c0.9,3.3,1.2,6.8,1.7,10.2c0.2,1.1,0.1,2.8,0.6,3.8c0.3,0.7,1.3,1,1.7,1.7c0.3,0.6,0.2,1.5,0.2,2.2c-1.2,0-2.8-0.3-3.9,0.1
		c-1.7,0.5-3.5,2.1-5.1,3C221,251,218.5,250.8,215.3,251.1z"/>
	<path id="la_pintana_1_" class="st3" d="M232.6,286.1c-4.2,1.1-8.3,2.9-12.6,2.3c-3.5-0.4-7-0.9-10.5-1.3c-1-0.1-5.6-1.4-6.5-0.8
		c-0.6,0.4-2.4,8.5-3.1,12c-0.8,4.1-1.6,8.3-2.6,12.3c-1.4,5.9-2.8,11.9-4.3,17.8c6,0.6,12,1.1,18,1.7c-0.5,3.4-0.9,6.8-1.4,10.2
		c0.6,0,1.1,0,1.7,0c-0.2,1.6-0.4,3.2-0.6,4.7c3,0,3,0,6,0c0.5,0,2.4,0.3,2.7,0c0.6-0.5,0.7-3.7,0.8-4.5c0.4-2.4,0.4-4.5,0.4-7
		c0-1.8,0-3.7,0-5.5c0-0.6-0.2-2,0.1-2.4c0.4-0.4,5.5-0.5,6.2-0.6c1.9-0.4,2.9-0.7,4.8-1.1c0.9-0.2,3.6-0.2,4.3-0.8
		c0.7-0.6,0.2-1.7,0.1-2.8c-0.3-2.8-0.3-5.6-0.4-8.5c-0.1-2.2-1.7-3.3-2-5.4c-0.3-1.9,0.7-3.9,0.6-5.8c-0.1-1.3,0.2-3.4-0.3-4.6
		c-0.1-0.3-1.5-2.9-1.7-4.6c0.6,0,1.2,0,1.8,0C233.6,289.5,233.1,287.8,232.6,286.1z"/>
	<path id="providencia_1_" class="st2" d="M230.4,157.2c-1,0.6-2.4,1.2-3.2,2.1c-0.6,0.6-0.6,1.6-1.1,2.3c-0.9,1.4-3.4,4.4-4.9,4.9
		c-0.5,0.2-1.1-0.2-1.6,0c-0.4,0.1-1,0.8-1.4,1.1c-1.2,0.9-1.4,1-1.6,2.5c-0.4,2.6-1.4,4.4-2.5,6.7c0.2,0,0.5,0,0.7,0
		c-0.2,5.6,2,10.9,3.5,16.3c2.9-1,5.9-1.9,8.8-2.9c-0.4,3,6.4-1.4,7.6-1.6c1.7-0.3,4.8-0.9,6.5-0.6c1.3,0.3,2.7,1.6,3.9,2.4
		c2-3.6,4.1-7.2,6.1-10.8c1.1-1.9,1-1.8-0.6-3.5c-1-1-2-1.9-3.1-2.9c-2.9-2.7-5.8-6.4-9.2-8.5c-1.1-0.7-2.7-0.8-3-1.9
		c-0.3-1.1,0.5-4.5,1-5.7C234.2,157.3,232.3,157.2,230.4,157.2z"/>
	<path id="nunoa_1_" class="st2" d="M218.3,193c2.9-1,5.9-1.9,8.8-2.9c-0.4,3,6.4-1.4,7.6-1.6c1.7-0.3,4.8-0.9,6.5-0.6
		c1.3,0.3,2.7,1.6,3.9,2.4c2.4-4.1,4.7-8.3,7.1-12.4c1.9,1.2,5.2,2.6,6.1,4.6c0.6,1.5,0.7,3.6,1,5.2c0.3,1.6,0.9,3.4,0.9,5
		c0.1,2.3-0.3,5.2-0.9,7.5c-0.4,1.6-1,3.1-1.4,4.7c-0.3,1.1-0.5,3.1-1.3,4c-0.8,1-2.9,1.8-4,2.5c-1,0.7-1.8,1.2-2.9,1.4
		c-3.6,0.6-7.8-0.1-11.4-0.1c-2.5,0-4.9,0.4-7.3,0.7c-1.7,0.2-3.6,0.7-5.3,0.7s-1.4-0.6-2-2.4C221.5,205.7,220,199.3,218.3,193z"/>
	<path id="la_reina_1_" class="st2" d="M252.1,178c1.7,1.1,3.5,2.1,5.1,3.3c1.2,0.9,1.1,1.5,1.4,3.1c0.7,3.8,1.7,7.4,1.3,11.2
		c-0.2,1.5-0.9,3.6,0.1,4.5c1.1,1,4.1,2.1,5.6,2.5c3.2,0.8,7.4,0.4,10.7,0.4c2,0,4.2-0.6,6.1-0.3c1.8,0.3,3.8,1.4,5.6,2.1
		c0.3-1.2,0.4-3.8,1.1-4.7c0.6-0.7,0.1-0.4,1.2-0.5c3.1-0.3,6.6,0.4,9.7,0.6c6.3,0.4,12.7,0.8,19,1.2c0.1-1.9-0.2-2.9-1.2-4.7
		c-0.8-1.4-2.1-1.9-3.2-3c-0.9-0.9-2.4-2.1-2.6-3.2c-0.4-1.6,0.4-2.5-0.5-3.8c-1.2-1.7-3.3-3-4.9-4.4c-0.9-0.8-2-2.2-3.1-2.8
		c-1.6-0.8-3.8-0.7-5.5-1.3c-1.5-0.5-2.8-1.5-4.3-2c-3-1.1-7.6,0.5-10.8,1c-0.1-1.2-0.3-2.4-0.4-3.6c-4.9,0.6-9.8,1.6-14.7,1.9
		c-5.8,0.3-11.7,0.3-17.5,0.4C250.9,176.7,251.5,177.4,252.1,178z"/>
	<path id="macul_1_" class="st2" d="M231,242.5c-0.8-4.6-1.1-9.5-2.4-14c-0.6-2.3-1.9-4.4-2.5-6.6c-0.7-2.4-1.1-5-1.6-7.5
		c5.2-0.7,10.3-1.6,15.6-1.6c3.1,0,7,0.7,10,0.1c2.2-0.5,4.6-2.7,6.6-3.9c-0.5,3-0.9,5.9-1.4,8.9c-0.4,2.7-0.5,5.8-1.3,8.4
		c-1,3.2-3.2,6.4-4.7,9.5c-1.3,2.7-1.2,4.5-1.2,7.6C242.4,243,236.7,242.7,231,242.5z"/>
	<path id="puente_alto_1_" class="st2" d="M297.2,335.3c-2.4,0.6-3.8-0.9-5.8-1.7c-1.6-0.6-2.5,0.1-3.6,1.3
		c-1.1,1.2-1.6,2.3-3.2,2.1c-2.2-0.3-4.1-1.7-6.4-1.6c-1.9,0.1-3.1,1.9-4.8,2.7c-0.8,0.4-1.6,0.7-2.5,0.6c-1.1-0.1-1.7-0.9-2.7-1.1
		c-1.5-0.2-2.6,0.8-3.2,2c-0.2,0.3-0.4,2.2-0.6,2.4c-0.3,0.3-2.1,0.1-2.5,0.1c-1.6,0.1-3.2,0.5-4.1,2.1c-0.8,1.5-0.8,3.4-1.7,4.9
		c-1,1.5-1.4,0.5-2.9,0.3c-2.9-0.4-3,3.3-5.2,4.3c-0.5,0.2-1.2,0.4-1.7,0.2c-0.6-0.3-0.4-1.2-1.2-1.4c-0.5-0.1-1.1,0.4-1.6,0.5
		c-0.9,0.4-1.5,0.3-2.4,0.4c-1.9,0.2-3.5,1.5-5.4,1.6c-1.3,0-2,0.1-3.3,0.5c-1.3,0.3-2.6,0.4-3.9,0.1c-10.8-2.3-10-1.3-9.4-3.1
		c0.6-1.7,0.3-4,0.4-5.8c0.2-3.2,1.4-6.4,1.4-9.6c0-2.6,0-5.2,0-7.8c0-1.2-0.4-2.8,0.4-3.4c1.4-1,8.1-1,9.8-1.3
		c1.3-0.2,1.6-0.5,2.8-0.7c0.5-0.1,2.2-0.1,2.6-0.5c0.6-0.6-0.2-3.4-0.3-4.4c-0.2-2.3-0.2-4.5-0.2-6.8c-0.1-2.1-1.2-2.4-1.9-4.3
		c-0.6-1.6-0.3-4.1-0.4-5.8c-0.1-1.1,0-4.8,0.6-5.8s4.7-1.7,5.8-2.2c2-0.8,3.1,0.2,5.1,1.2c1.8,0.8,3.2,0.3,5.2,0.1
		c0.5-0.1,2.1,0,2.4-0.4c0.5-0.7-0.7-2.8-0.2-3.6c0.5-0.7,4.1-0.8,4.9-1c4.8-1,9.6-1.9,14.3-2.9c-2.5-3.9-5-7.7-7.5-11.6
		c3,0.1,6,0.1,9,0.2c2.5,0,3.7,2.2,5.5,3.9c0.9-1,1.8-2,2.8-3.1c0.2,0.5,0.6,2.2,1,2.5c0.4,0.2,2.4-0.3,2.9-0.4
		c1.2-0.3,3.1-1.8,3.8-0.4c0.3,0.7,0,2.2,0,2.9c0,1.4,0,2.9,0.1,4.3c0,2,0.1,4,0.1,6c-1.9-0.8-3.8-1.5-5.7-2.3
		c-0.4,3.3-0.8,6.6-1.2,9.9c-0.5-0.1-1.1-0.1-1.6-0.2c-0.1,2.7-1,6.8,0.1,9.2c0.6,1.4,2.2,2.4,2.7,3.8s0,3.7,0.9,4.8
		c0.5,0.6,4.3,2.6,5,2.5c1.1-0.2,1.7-2.8,2.7-3.4c0.6-0.3,2.3-0.1,3-0.2c2.2-0.1,4.3-0.2,6.5-0.4c3.9-0.2,7.8-0.4,11.7-0.7
		c0,0.8,0.2,2.7-0.2,3.4c-0.2,0.3-1.3,0.2-1.6,0.6c-0.7,0.7-0.2,1.1,0,2c0.3,1.8-0.4,4.8-2.5,5.4c-1.7,0.5-3.9-2-3.6,1.2
		c0.2,1.9,0.2,3.3-1.1,5c-1,1.3-3.5,1.7-4.3,0.1c-0.5-0.9,0-3.6-2-2.4c-1,0.6-0.4,0.8-0.3,1.8C298.4,333.3,297.8,334.1,297.2,335.3z
		"/>
	<path id="pirque_1_" class="st2" d="M255.8,358.7c0.2-2.1-2.7,1.2-3.2,1.5c-2.4,1.8-5.9,1.4-8.6,2.8c-1.5,0.8-2,2.2-3.3,3.2
		c-0.9,0.7-2,0.8-3,1.2c-1.6,0.6-2.8,0.8-4.5,0.6c-1.8-0.2-2.6-0.4-4.2,0.6c-1.4,0.8-5.3,1.9-5.4-0.9c0-1.6,3.2-2.9,2.6-4.4
		c-0.3-0.8-2.7-0.5-3.3-0.6c-1.2-0.2-2.3-0.9-3.1-1.8c-2.2-2.6-3.8-5.8-0.7-6.6c2.9-0.7,8.1,1.1,10.8,1.2c1.8,0.1,3.4-0.8,5-0.9
		c1.5-0.1,2.5-0.5,3.9-1s2.6-0.2,3.9-0.6c0.7-0.2,1.6-1.1,2.4-0.9c1.2,0.3,0.6,1.9,2.4,1.5c1.1-0.2,1.7-1.3,2.3-2.2
		c1-1.5,1.7-2.7,3.7-2.3c1.1,0.2,1.4,0.8,2.3,0c1.9-1.6,0.9-5.1,3.2-6.6c1.1-0.7,2.3-0.6,3.5-0.7c0.4,0,1.6,0.1,1.9-0.1
		c0.2-0.2,0.3-1.9,0.6-2.3c2.1-3.9,4.3-0.3,7.4-1.1c1.9-0.5,2.9-2.2,4.5-3c1.6-0.7,3.7,0,5.2,0.5c1.9,0.6,3,1.6,4.6,0.1
		c0.8-0.8,1.4-1.9,2.4-2.5c2.4-1.5,6.7,3.8,8.5,1.2c0.3,0.5,0.5,1.1,0.8,1.6c-3.5,0.1-6.1,0.5-9.4,1.8c-1.8,0.7-1.2,1.2-1.2,3.2
		s0.5,2.1,2,3.4c-2,0.4-4,0.6-5.9,1.2c-1.5,0.5-2.2,1.5-3.4,2.7c0-1,0-1.9,0-2.9c-2.4,0.4-4.7,0.8-7.1,1.2c0.2-0.9,0.4-1.8,0.6-2.7
		c-1.5,0.8-3.7,1.4-5,2.5c-0.7,0.6-0.4,0.1-0.7,0.8c-0.3,0.7,0.1,2.1,0.2,2.9c0.1,1.4,0.6,3.1-0.2,4c-1,1.1-3.7,1.6-5.1,2.3
		c-0.1-1.5-0.3-3.1-0.4-4.6c-1.4,0.7-2.9,1.3-4.3,2c0.7,1,1.4,1.9,2.2,2.9C258.9,357.4,257.4,358,255.8,358.7z M310.2,325.5
		c-1,0.6-1.4,0.7-2.6,0.4c-0.4-0.1-0.9-0.7-1.4-0.6c-1.4,0.4-0.2,2.7-0.2,3.6c1.3-1.3,2.1-0.8,3.7-1.2
		C311.3,327.3,311.1,326.5,310.2,325.5z M311.5,322.5c-0.1,0.1-0.2,0.2-0.1,0.3c0.7,0,2-1.8,2.6-2.2c1.3-1,2.7-1.8,3.8-2.9
		c1.3-1.2,2.1-2.6,4-2.4c1.4,0.2,2.3,1.5,3.6,0.2c0.7-0.6,0.9-3.9,1.5-4s1.4,2.5,3,2.2c0.8-0.1,1.1-0.8,1.8-1.1
		c0.9-0.4,2-0.2,2.9-0.1c1.7,0.1,4.2,0.4,4.2-2.1c-0.1-2-2.7-2.2-4.3-1.8c-1.9,0.5-2.5,2.4-4.6,1.6c-1.5-0.6-3-2.5-4.8-2
		c-2.3,0.7-0.4,3.6-1.9,4.5c-0.8,0.5-0.9-0.2-1.6-0.5c-1.4-0.6-1.5-0.4-2.6,0.6c-1.5,1.4-2.7,2.7-4.3,3.8c-0.3,0.1-0.6,0.2-0.9,0.4
		c-0.3,0.3-0.4,0.6-0.4,1.1c-0.3,0.2-0.9-0.1-1.2,0.2c-0.7,0.7-0.6,0.4-0.8,1.3C311.3,320.8,311.8,321.6,311.5,322.5z M349.6,301.8
		c-1-1.3-2.2-3.4-4-3.4c-2.4,0.1-1.9,2.7-3.3,4c-2,2-3-1-4.9-0.5c-1.2,0.3-0.2,1.3-0.3,2.6c1-0.8,1.9,0.2,2.8,0.5
		c1.1,0.5,2.1,0.6,3.3,0c1.1-0.6,1.8-2.3,3-2.7c0.2-0.1,1,0.2,1.3,0.1C348.2,302.4,348.7,301.8,349.6,301.8z"/>
	<path id="san_jose_de_maipo_1_" class="st2" d="M336.8,304.6c0.1-1.3-1-2.3,0.3-2.6c1.9-0.5,3,2.5,5,0.5c1.3-1.4,0.9-3.9,3.2-4
		c2.2-0.1,2.6,2.3,4,3.4c1,0.8,2.2,0.7,3.3,0.5c1.2-0.3,2.3-0.4,3.6-0.6c2.1-0.4,3.7-1.5,6-1.1c1.2,0.2,2.2,1.7,2.7,0.3
		c0.4-1.2-0.7-2.1-1.7-2.3c-1.1-0.2-1.9,0.4-2.9,0.7c-1.3,0.3-1.3,0-2.5-0.5c-0.7-0.2-1.9-0.4-2.4-0.7c-0.5-0.3-0.7-0.8-1.1-1.1
		c-1.6-1-0.5,0-2.2,0.5c-1.5,0.5-2.6-1.1-3.1-2.3c-0.3-0.9-0.1-3-1.3-3.3c-0.7-0.2-1.5,1.7-1.6,2.3c-0.1,0.4,0.4,1.7,0.2,1.9
		c-0.7,0.9-2.3,0.3-3.2,0.4c-1.7,0.2-3.5,1.1-4-1.4c-1.3,0.5-1.3,2.4-2.7,2.9c1.5,1.7-0.1,2.7-0.9,4.1c-0.7,1.1-0.3,2.7-1.9,2.2
		c-0.8-0.2-0.3-1.4-1.2-0.5c-0.5,0.5-0.1,1.4-0.5,2c-1.1,1.4-2.9,0.6-2.9-1c-0.4,0.6-1,1.9-1.8,2.1c-1.2,0.3-1-1.1-1.8-1.4
		c-1.1-0.4-2.1,1.2-3.3,1c-0.9-0.2-1.2-1.1-2.4-0.6c-0.9,0.4-1.4,1.4-1.7,2.3c-0.2,0.6-1.3,5.9-0.7,6.1c0.9,0.3,1.9-2.7,3.4-2.4
		c1.2,0.2,1.5,1.8,2.5,0.4c0.9-1.3-0.4-3.3,1.5-4c1.4-0.5,2.8,0.7,3.9,1.3c1.4,0.8,2.2,1.3,3.6,0.3c1.7-1.1,2.2-1.4,4.3-1.2
		C340.4,309,335.3,306.1,336.8,304.6z"/>
	<path id="la_florida_1_" class="st2" d="M231.6,242.5c1.4,1.4,1.2,1.6,1.3,3.5c0,0.5,0,1,0.1,1.6c0.1,3.2,0.2,6.4,0.3,9.6
		c0.2,6,0.4,12,0.6,18c-1,0-2,0-3,0c1,4.4,2.1,11.8,3.4,16.2c-0.6,0-1.2,0-1.8,0c0.3,1.8,0.5,0.5,0.8,2.3s0,2.4,1.9,1.9
		s4-2.1,5.9-2.2c1.4-0.1,2.9,1.1,4.3,1.6c1.5,0.6,2.6,0.3,4.2,0.1c0.5-0.1,2.4,0,2.8-0.4c0.5-0.4,0.3-1,0.2-1.9
		c-0.1-1.8-0.4-1.8,1.2-2.1c2-0.4,3.9-0.8,5.9-1.2c4-0.8,8-1.6,12.1-2.4c-2.5-3.9-5-7.7-7.5-11.6c3,0.1,6,0.1,9,0.2
		c2.5,0,3.7,2.2,5.5,3.9c1.4-1.5,2.8-3,4.4-4.4c1.1-0.9,1.2-0.7,1.1-1.9c-0.1-1-0.8-3-1.3-3.9c-0.8-1.3-3.9-2.3-4.2-3.6
		c-0.5-1.9,3.8-1.1,4.8-1.1c-0.1-2-0.2-4-0.3-6c4.4,0.4,8.9,0.8,13.3,1.2c0-1.2,0.4-5-0.3-5.6c-0.5-0.4-2.7-0.2-3.4-0.3
		c-0.7-0.1-3.3,0.2-3.9-0.3c-0.8-0.7-0.3-4.9-0.3-6.1c-0.1-2.6,0.4-3,2.1-5c-0.9,0-2.4-0.3-3.2,0c-0.8,0.3-1.2,1.4-1.9,1.9
		c-1.1,0.8-2.6,1-3.9,0.9c-4.3,0-8.6,0-12.9-0.3c-7.5-0.4-15-1.3-22.6-1.8C241.1,243.1,236.6,242.8,231.6,242.5z"/>
	<path id="penalolen_1_" class="st2" d="M319.1,201.5c-6.3-0.4-12.7-0.8-19-1.2c-3.1-0.2-6.6-0.9-9.7-0.6c-1.1,0.1-0.6-0.2-1.2,0.5
		c-0.7,1-0.9,3.5-1.1,4.7c-2.1-0.8-4.2-2-6.4-2c-2.3-0.1-4.7,0.3-7,0.2c-2.8-0.1-6.1,0.3-8.8-0.3c-2.1-0.5-4.3-1.9-6.3-2.8
		c-1,3.2-2.2,6.4-2.9,9.6c-0.9,4.7-1.5,9.6-2.2,14.3c-0.5,3.5-2.5,6.5-4,9.7c-0.7,1.4-1.9,3-2.2,4.5c-0.2,0.8-0.4,4.7,0.1,5.1
		c0.7,0.6,3.9,0.3,4.7,0.4c2.8,0.2,5.5,0.4,8.3,0.7c3.1,0.2,6.1,0.6,9.2,0.7c4,0.1,8.8,0.9,12.8,0.2c2.2-0.4,2.6-2,4.3-2.8
		c0.8-0.4,2.4,0.5,3.2,0c0.6-0.4,0.6-1.7,1.3-2c0.3-0.2,0.9,0.3,1.3,0.2c0.3-0.1,0.6-0.6,0.8-0.8c1.1-0.9,2.1-1.9,3.1-2.9
		c2-1.8,2.3-2.2,4.9-2.3c1,0,2.6,0.2,3.5-0.1s1.4-1.6,2.3-1.9c0.9-0.4,2.2,0.1,3.1-0.2c1-0.4,0.7-0.7,0.7-2c3.2,1.5,6,3.4,9.5,3.6
		c3.3,0.2,4.6-4.2,7.4-5.2c1.4-0.5,3.4,0.5,4.9,0c1.7-0.6,1.9-2.2,4-2.2c1.7,0,3.2,1.1,4.7,1.7c1.8,0.8,2.5,0.9,4.5,0.8
		c2-0.1,3.4-1.2,5.2-2.2c1.7-0.9,2.9-0.7,4.9-0.6c-0.1-1.5,0-3.5-1-4.8c-1.1-1.4-3.2-0.6-4.9-1.1c-0.7-0.2-1-0.7-1.7-1.1
		c-0.8-0.5-1.6-0.2-2.5-0.5c-1.5-0.5-2.3-2.6-3.4-3.8c-0.7-0.8-0.6-0.5-1.4-0.9c-0.3-0.1-0.6-0.1-0.9-0.2c-0.4-0.2-0.7-0.8-1.1-1
		c-1.3-0.6-3.8-0.2-5.3-0.3c-2-0.1-2.5-0.1-4.1-1.2c-0.5-0.4-1.7-0.9-2-1.4c-0.4-0.6,0-1.6-0.3-2.2
		C326.6,204.1,322.4,203,319.1,201.5z"/>
	<path id="las_condes_1_" class="st2" d="M355.3,221c-1.5-0.2-3.6,0-5-0.6c-0.6-0.3-1-1-1.6-1.3c-0.7-0.3-1.7,0-2.4-0.3
		c-1.3-0.6-2.2-2.7-3.2-3.8c-0.5-0.6-0.5-0.6-1.1-0.9c-0.3-0.1-0.7,0.1-1-0.1c-0.4-0.2-0.7-0.7-1-1c-2.3-1.4-6,0.2-8.5-1
		c-0.8-0.4-2-1.2-2.6-1.9s-0.5-0.7-0.7-1.7c-0.4-1.5-1.6-2.6-2.7-3.8c-1.1-1.1-2.4-1.5-3.8-2.2c-0.5-0.3-2-0.6-2.4-1.1
		s0-1.1-0.1-1.7c-0.5-3.3-3.2-4.7-5.2-6.9c-1.4-1.5-2-1.3-1.9-3.4c0-1.8,0.2-2-1-3.1c-1.6-1.4-3.2-2.9-4.7-4.3
		c-0.8-0.8-1.8-1.9-2.8-2.4c-1.7-0.8-3.9-0.7-5.6-1.3c-1.6-0.5-3-1.9-4.7-2.3c-1.3-0.3-3.1,0.3-4.4,0.5c-1.9,0.3-3.9,0.5-5.8,0.8
		c-0.1-1.2-0.3-2.4-0.4-3.6c-4.7,0.6-9.4,1.5-14,1.9c-5.4,0.4-11,0.2-16.4,0.4c-1.9,0-2-0.3-3.4-1.6c-2.4-2.2-4.8-4.4-7.2-6.6
		c-1.6-1.4-2.7-2.7-4.7-3.5c-0.7-0.3-1.3-0.6-1.5-1.2c-0.3-0.8,0.2-3.4,0.5-4.3c0.5-1.6,0.5-1.5,1.9-2.2c1.8-0.8,3.7-1.6,5.5-2.4
		c6.1-2.7,12.2-5.4,18.2-8c5.8-2.6,11.6-5.1,17.4-7.7c1.5-0.6,3.2-1.2,4.6-2c1.2-0.8,2-2,2.9-3.2c1.5-1.9,2.3-2.9,4.4-4
		c2.8-1.4,5.6-3.1,8.5-4.2c2.1-0.8,4.4-0.3,6.5-0.9c0.9-0.3,1.7-1,2.5-1.5c1.6-1.1,1.7-0.9,3.5-1.1c1.2-0.2,1.7-1,2.7-1.8
		c1.1-0.8,1.1-0.7,2.5-0.5c2.6,0.4,4.9,0.7,7.5,0.7c1.7,0,1.7-0.4,1.8,1.2c0.1,1.3,0.2,2.3-0.6,3.2c-0.7,0.8-2,1.1-2.6,2
		c-0.6,0.8-1.1,2.6-1.2,3.7c-0.3,2.3,2.3,4,3.4,5.9c0.8,1.5,0.7,2,0.7,3.6c0,1.7,0.4,1.4,1.9,1.9c2,0.8,3.8,2.7,5.8,3.5
		c2.4,1,5.4,1,7.9,1.6c1.7,0.4,2.6,1.7,2.8,3.4c0.4,3.1-0.2,6.5-0.2,9.6c0,0.6-0.2,1.6-0.1,2.2c0.1,0.4,0.6,0.6,0.8,1.1
		c0.2,0.6-0.3,1.6,0,2.1c0.3,0.6,1.5,1.2,2.1,1.6c1.3,1,2.7,2.2,4.2,3c0.7,0.4,1,0.4,1.8,0.6c1.1,0.2,3.7,0,4.5,0.6
		c1.2,0.9,1.5,5.4,1.9,6.9c0.2,1,0.7,2.1,0.8,3.1c0,1.1-0.8,2.2-0.6,3.3c0.3,2,2.2,3.7,2.7,5.7c0.5,2.4,0.9,6.3,0.6,8.7
		c-0.1,1.2,0.1,0.8-0.9,1.7c-0.9,0.8-2.3,1.6-3,2.6c-0.4,0.6-1.3,2.8-1.2,3.5c0.1,1,1.6,1.8,1.8,2.8c0.3,0.9-0.2,2.7-0.2,3.7
		c0,0.7,0.2,3.2-0.2,3.7c-0.2,0.2-1-0.1-1.2,0c-0.2,0.2-0.5,0.9-0.6,1.2C356.5,218.7,355.9,219.8,355.3,221z"/>
	<path id="vitacura_1_" class="st2" d="M232.5,147.1c-0.5,2.4-0.1,5-0.3,7.5c-0.1,1.6-0.5,1.7-1.9,2.6c1.8,0,4.1,0.4,5.8,0
		c1.1-0.2,2.3-1,3.3-1.5c5.4-2.4,10.9-4.8,16.3-7.2c6.2-2.7,12.4-5.5,18.7-8.2c2.8-1.2,6.8-2.2,9.2-4.1c2-1.5,2.8-4.4,4.7-5.9
		c1.9-1.5,4.9-2.4,7.1-3.6c-0.8-1-1.3-2-2.4-2.2c-1.6-0.3-4,0.3-5.6,0.4c-2.6,0.2-6.5,1.3-8.8-0.1c-2.9-1.8-5.2-4.2-7.6-6.6
		c-1-1-2-1.5-3.2-2.2c-1.6-0.8-2.6-0.5-4.3-0.7c-1.2-0.1-0.8-0.4-1.8-0.8c-0.3-0.1-0.9,0-1.2-0.2c-0.3-0.2-0.4-0.6-0.6-0.8
		c-0.8-0.6-0.8-1.1-2.1-0.6c-0.7,0.2-1.2,0.7-1.8,1.2c-0.5-1-0.9-2.7-1.7-3.5s-2.4-1.3-3.4-1.9c-0.6,1.4-0.9,2.9-2.5,3.5
		c-1.3,0.5-3.2-0.2-4.5,0.4c-1.1,0.5-2.2,2.6-3.1,3.5c-0.9,1-1.9,2-2.9,3c0.7,0.7,2.2,1.5,2.5,2.4c0.4,1.2-0.1,4-0.3,5.3
		c-0.2,1.3-1.1,1.4-1.5,2.6c-0.3,0.9,0,3.1,0.2,4c-1.7,0.8-2.9,0.9-2.5,3.1c0.4,1.7,1.7,2.1,1.1,4.2c-0.4,1.4-1.6,1.7-2.6,2.8
		C233.9,144.6,233.2,146,232.5,147.1z"/>
	<path id="lo_barnechea_1_" class="st2" d="M256,114.2c0.8-0.6,2.2-1.9,3.5-1.4c0.5,0.2,0.7,1.3,1.1,1.6c0.3,0.2,0.9,0,1.2,0.2
		c0.2,0.1,0.5,0.5,0.7,0.6c1.3,0.4,2.9-0.1,4.2,0.2c1.1,0.2,2.6,1.2,3.5,1.9c2.1,1.6,3.7,3.9,5.8,5.6c1,0.8,2.6,2.4,3.8,2.7
		c0.9,0.3,2.4-0.2,3.3-0.2c2.1-0.2,4.3-0.3,6.4-0.5c1-0.1,3.2-0.7,4.2-0.3c1,0.4,1.3,2,2.3,2.1c1.1,0.1,2.7-1.5,3.8-1.8
		c1.7-0.5,3.7-0.1,5.5-0.6c1.4-0.4,2.4-1.4,3.6-2.1s2-0.1,3.3-0.5c1.2-0.4,1.9-2.3,3.1-2.5c1.6-0.3,4,0.7,5.6,0.9
		c1.6,0.2,3.2,0.1,4.8,0.1c0.8,0,3.1-0.8,3.7-0.5c0.7,0.4,0.3,1.4,1.1,1.6c0.6,0.2,1.9-0.3,2.6-0.4c-0.1,1.8-0.1,2.2,0.9,3.7
		c2-1.8,4.5-3.4,6.1-5.5c0.2-0.2,0.6-0.4,0.7-0.6c0.2-0.3-0.2-1,0-1.3c0.6-1,2.6-1.1,3.2-2.1c0.5-0.9-0.4-2.6,0.1-3.4
		c0.4-0.6,1.1-0.5,2-0.6c2.6-0.4,6.1-0.3,8.5-1.4c2.3-1,3-3.2,3.9-5.2c0.2-0.5,1.8-2.8,1.6-3.4c-0.1-0.2-0.7-0.5-0.9-0.6
		c-2-1.7-4.7-3-6.9-4.4c-3-1.9-6-3.8-8.9-5.7c-2.1-1.3-4.2-3.2-6.5-4.1c-2.4-1.1-3.7,1.2-5.5,2.7c-0.7-0.8-1.4-1.7-2.2-2.5
		c-0.4-0.5-1.5-2.3-2.2-2.5c-0.4-0.1-1.4,0.4-1.8,0.5c-1.5,0.4-3,0.8-4.4,1.2c-2.6,0.7-5.5,1.9-8.2,2.2c-1.5,0.2-2.8-0.6-4.2-1.2
		c-4.7-1.8-8.9-3.5-13.2-6.1c-1.9-1.2-2.3-1.5-4.4-1.3c-3,0.3-6,0.5-9,0.8c-0.7,0.1-1.7,0-2,0.4c-0.2,0.3,0,1.1-0.2,1.4
		c-0.3,0.6-1.2,1.1-1.7,1.5c-0.3,0.2-1.3,1.4-1.7,1.5c-0.5,0.1-0.5-0.1-1.1-0.5c-1.7-1.1-1.1-1.4-0.2-2.9c-0.6-0.1-1.9-0.6-2.4-0.4
		s-0.6,1-0.8,1.7c-1.5-0.5-2.8-1.2-4.2-0.1c-1.2,1-0.9,2.1-0.1,3.4c1.6,2.8,4.3,4.4,6.8,6.4c-1.9,0.6-1.6,0.3-1.6,2.1
		c0,1.5-0.7,1.5-2,2.4c-0.4-1-1-3.9-1.8-4.5c-1.1-0.8-2.5,1.1-3.3,1.6c-1.7,1.1-3.1,0.9-3.3,3c-0.2,2.2,0,2.5,1.4,4.2
		c-1.7,1-3.4,2-5.1,3c0.3,0.5,1.6,2.1,1.6,2.6c-0.1,0.6-2,1.9-2.4,2.3c-0.8,0.7-1.1,0.9-1.3,1.8C255.7,111.7,256,113.1,256,114.2z"
		/>
	<path id="huechuraba_1_" class="st2" d="M173.9,108.9c0,2.8,0.3,4.5,1.2,7.1c0.5,1.3,0.7,3.2,1.5,4.4c0.7,1.1,1.1,0.9,2.5,1.1
		c5.2,0.8,10.3,4.1,15.1,6.3c4.3,1.9,8.5,4,12.8,6c1.8,0.9,3.7,1.6,5.3,2.6c1.9,1.2,3.6,2.9,5.3,4.3c4.9,3.9,9.7,7.9,14.6,11.8
		c0.2-2.1-0.4-4.3,0.6-6.2c0.5-1,1.2-2.1,1.9-2.9c0.6-0.7,1.9-1.2,2.4-2c0.4-0.8,0.2-2.1,0.3-3c0.1,0.1,0.1,0.3,0.2,0.4
		c-0.8-0.8-2.3-3.1-3.4-3.5c-0.5-0.1-1.2,0.4-1.7,0.2c-0.7-0.2-1.6-1.3-2.2-1.8c1.1,0,5.5,0.7,4-1.8c-0.5-0.9-3.8-0.8-5.1-1
		c0.2-2,2.4-3.5,3.7-4.8c-0.9-0.1-2.5-0.6-3.3-0.3c-0.6,0.2-0.2,0.1-0.6,0.4c-0.2,0.1-0.1,0.7-0.2,0.8c-0.2,0.1-0.4,0-0.6,0.1
		c-0.1,0.1-1,0.1-1.2,0.2c0.3-0.1-1.1,0.6-0.9,0.5c-0.7,0.5-0.3-0.2-0.9,0.7c-0.3,0.4-0.3,1.2-0.4,1.7c-1-0.5-3.5-1.2-4.1-2.1
		c-0.5-0.6,0.1-2.6,0.3-3.5c0.3-2.5,1.3-5.9-1.7-7.3c-2.9-1.3-5.4,1.8-6.3,4c-0.7,1.5-0.5,2.4-2,2.5c-1,0.1-0.9-0.3-1.5,0.2
		c-0.5,0.4-0.7,1.6-0.9,2.2c-1.9-0.8-3.9-1.5-5.8-2.4c-0.8-0.4-1-0.2-1.1-0.8c-0.1-0.7,0.9-2.2,1.1-2.8c-0.9,0-1.7-0.1-2.6-0.1
		c0.5-1.5,2.1-4.1,2-5.6c-0.2-2.4-3.4-1.5-4.9-1.5c0-1.6,0.3-1.7-0.8-2.4c-1-0.6-2.6-0.7-3.8-1c0.4-1.2,0.7-2.5,1.1-3.7
		c0.4-1.5,0.7-1.7,0-2.8c-0.3-0.5-1.2-0.9-1.4-1.4c-0.1-0.3,0.5-0.9,0.4-1.2c-0.4-0.7-2.6-1.4-3.3-1.8c-0.3,1.3-0.1,2-1.6,1.8
		c-0.9-0.1-1.2-1-2.2-0.7c0.4,1.6,0.2,1.9-1.1,3.1c-1.1,1-1.5,0.9-3.1,0.9c0.3,1.3,0.3,1.2-0.4,2.2c-1.1,1.5-1.3,0.5-2.7,1.1
		c-0.8,0.4-0.6,1.9-1.3,2.3C176.3,109.6,174.6,109,173.9,108.9z"/>
	<rect x="5" y="5" class="st4" width="90" height="60.1"/>
	<path class="st2" d="M15,14.7L15,14.7c2.8,0,5,2.2,5,5v0c0,2.8-2.2,5-5,5h0c-2.8,0-5-2.2-5-5v0C10,17,12.2,14.7,15,14.7z"/>
	<text transform="matrix(1 0 0 1 25 22.7301)" class="st5"><tspan x="0" y="0" class="st6 st7 st8">El resto de </tspan><tspan x="0" y="14.4" class="st6 st7 st8">comunas</tspan></text>
	<path class="st3" d="M15,45.7L15,45.7c2.8,0,5,2.2,5,5v0c0,2.8-2.2,5-5,5h0c-2.8,0-5-2.2-5-5v0C10,48,12.2,45.7,15,45.7z"/>
	<text transform="matrix(1 0 0 1 25 53.7301)" class="st6 st7 st8">Bajo</text>
</g>
</svg>
